<svg width="535" height="453" viewBox="0 0 535 453" fill="none" xmlns="http://www.w3.org/2000/svg">
<g clip-path="url(#clip0_7_0)">
<path fill-rule="evenodd" clip-rule="evenodd" d="M338.651 300.211C337.61 315.577 316.786 323.521 304.162 326.841C306.699 311.801 309.953 296.175 307.936 280.874C307.285 275.86 306.374 270.847 305.463 265.834C305.138 264.011 304.747 262.122 304.357 260.299C304.292 259.844 303.511 257.89 303.771 257.434C304.162 256.653 307.741 256.783 308.652 256.783C310.974 256.86 313.255 257.414 315.354 258.411C319.845 260.364 323.554 263.685 326.677 267.396C333.901 276.186 339.432 288.622 338.651 300.211ZM314.508 195.906C302.405 203.068 287.893 206.91 274.097 208.798C253.078 211.663 231.669 208.342 211.105 203.784C206.094 202.677 201.018 201.44 196.073 200.073C195.828 214.482 199.958 228.625 207.916 240.636C214.554 250.663 223.144 259.062 230.692 268.373C237.72 277.032 243.382 286.799 243.642 298.193C243.772 302.946 243.382 307.308 239.347 310.434C235.313 313.559 229.911 314.666 225.031 315.382C212.732 317.14 199.912 316.228 187.678 314.275C185.335 313.884 182.928 313.494 180.585 312.908C177.917 312.322 177.006 311.606 174.793 313.559C169.978 317.856 167.83 324.302 166.724 330.487C164.767 342.621 165.298 355.027 168.286 366.949C171.084 377.952 184.424 384.007 194.316 386.677C224.055 394.685 256.917 383.617 279.759 363.954C280.279 363.498 280.735 363.107 281.255 362.651C282.866 366.038 284.647 369.341 286.591 372.548C287.893 374.827 289.395 376.984 291.082 378.994C291.661 379.834 292.389 380.562 293.229 381.143C294.791 381.989 296.353 381.403 298.175 381.077C311.19 378.799 324.205 375.869 336.569 371.116C355.375 364.019 372.295 352.234 381.21 333.678C385.7 324.302 388.043 314.015 389.214 303.727C390.515 291.877 390.776 279.832 387.457 268.308C381.34 247.212 365.852 230.089 348.803 216.871C338.326 208.733 326.742 201.31 314.508 195.906Z" fill="#FCE96D"/>
<path fill-rule="evenodd" clip-rule="evenodd" d="M527.432 56.0508C524.699 57.1577 521.706 57.4181 518.778 57.6785C516.5 57.8739 514.678 58.7854 512.53 58.8505C506.478 58.8932 500.435 59.3281 494.44 60.1527C488.388 61.0642 482.856 59.8923 478.106 64.3848C476.414 66.0126 474.267 67.8356 475.308 70.44C475.763 71.612 476.414 72.4584 476.804 73.7606C477.25 75.1855 477.794 76.5778 478.431 77.9276C479.668 80.5971 485.72 90.4286 480.774 91.6006C475.438 92.9028 468.15 91.4053 463.009 89.9078C460.015 89.0613 457.022 88.0196 454.093 87.0429C451.751 86.2616 448.627 85.8058 446.48 84.5688C445.048 83.7223 444.723 82.355 443.812 80.9877C442.183 78.6049 440.307 76.4006 438.215 74.4117C433.595 70.1796 427.803 67.3147 422.077 64.8406C421.624 64.5901 421.144 64.3934 420.645 64.2546C420.19 64.1895 419.734 64.6453 419.474 64.5801C418.693 64.4499 418.433 63.9291 417.587 63.4733C416.48 62.8222 411.925 60.7387 411.079 62.3664C411.795 60.1527 412.381 60.8038 414.398 61.1293C415.309 61.2596 415.895 60.8689 416.676 60.934C417.391 60.9991 417.717 61.3898 418.302 61.52C419.426 61.6406 420.559 61.6624 421.686 61.5851C422.012 60.8689 422.467 60.8689 423.053 61.5851C423.378 61.7153 423.704 61.7804 424.029 61.9107C425.228 62.1509 426.45 62.2601 427.673 62.2362C429.495 62.3664 434.181 64.5801 435.092 62.3664C436.068 59.9574 433.139 59.3714 432.619 57.7436C432.163 56.1159 434.376 55.1393 435.287 54.1626C436.328 53.0558 436.914 52.0791 438.15 51.1025C438.953 50.5799 439.676 49.9439 440.298 49.2143C440.753 48.4981 440.753 47.3912 441.404 46.7401C442.12 46.0239 442.25 46.5448 442.901 46.1542C444.202 45.5031 443.616 45.5031 444.397 44.5915C445.048 43.8102 445.569 43.8102 446.415 43.2242C447.716 42.3778 448.172 40.6198 449.408 39.7083C450.319 38.9921 451.751 38.9921 452.532 38.2759C452.987 37.8852 452.857 37.169 453.247 36.7784C454.028 35.9971 454.549 36.3226 455.525 36.0622C457.152 35.6064 457.673 34.76 458.909 33.6531C460.015 32.6765 460.731 32.6765 462.098 32.2858C463.985 31.765 465.221 30.3325 466.913 29.4861C468.54 28.7048 470.167 28.1188 471.794 27.3375C472.965 26.7515 474.071 26.3609 475.178 25.7098C475.568 25.5144 475.568 24.7331 476.024 24.6029C476.544 24.4727 477 25.3842 477.585 25.4493C478.757 25.5796 480.123 24.2123 480.904 23.4309C481.23 23.1054 481.685 22.1939 482.141 21.9985C483.052 21.6079 483.572 22.3892 484.418 22.0636C485.59 21.6079 485.134 20.3708 485.785 19.7197C486.37 19.1337 487.672 19.1337 488.778 19.329C493.203 20.1104 486.305 23.1705 485.069 23.8216C482.921 24.8633 467.173 32.5463 470.883 36.3877C472.835 38.4061 477.585 36.9086 479.733 36.3877C483.442 35.4762 487.281 33.6531 491.121 33.1974C491.576 33.1323 493.008 33.4578 493.398 33.3276C494.244 33.002 494.049 32.3509 494.765 31.9603C495.806 31.4394 497.954 31.4394 499.06 31.5696C499.906 31.6347 500.817 32.1556 501.663 32.0905C502.574 32.0254 503.485 31.4394 504.461 31.3092C506.088 30.9836 507.715 31.179 509.342 31.179C511.684 31.2441 516.305 31.5696 512.921 34.6949C510.188 37.169 505.502 38.2759 502.053 39.3828C496.978 41.0105 491.967 42.4429 486.956 44.266C483.507 45.5031 476.219 47.7168 480.318 52.4047C480.709 52.014 481.099 51.6234 481.555 51.2327C482.01 51.6885 482.531 52.6651 483.312 52.6651C483.963 52.6651 483.702 52.014 484.288 51.8187C486.175 51.1676 488.778 51.2327 490.73 51.1025C495.676 50.7769 500.687 50.1258 505.632 49.9305C510.343 49.6912 515.065 50.0412 519.689 50.9723C520.665 51.4931 531.727 54.358 527.432 56.0508ZM486.761 104.232C487.021 106.315 486.11 108.008 485.85 110.027C485.524 112.436 485.785 114.649 485.069 117.058C483.702 121.746 482.791 126.63 481.295 131.317C478.757 139.586 474.657 146.879 470.427 154.431C468.28 158.273 465.026 161.398 462.033 164.653C458.974 167.909 456.566 171.164 452.922 173.834C445.634 179.238 437.825 183.991 429.235 186.921C420.255 189.981 410.754 190.893 401.318 190.502C397.088 190.307 392.663 190.762 388.563 190.046C384.138 189.33 379.388 188.418 375.093 187.377C367.154 185.423 359.54 182.103 351.796 179.108C343.141 175.787 335.397 171.555 327.458 166.802C325.376 165.565 323.163 164.914 321.211 163.416C319.584 162.114 317.957 160.877 316.2 159.705C314.183 158.338 312.296 156.905 310.279 155.603C309.042 154.822 307.35 154.106 306.7 152.673C305.854 150.785 306.895 148.376 307.415 146.488C308.131 144.079 308.912 141.67 309.758 139.326C311.19 135.289 314.899 129.169 312.882 124.872C308.587 127.541 306.7 132.75 304.878 137.177C302.593 142.349 301.228 147.879 300.843 153.52C300.236 165.257 302.098 176.991 306.309 187.963C306.96 189.59 308.001 191.283 307.22 192.976C306.374 194.799 304.097 196.297 302.34 197.078C296.808 199.552 291.212 200.268 285.42 201.636C283.858 202.026 282.101 203.133 280.605 203.263C279.629 203.329 278.783 203.003 277.611 203.068C276.44 203.068 275.529 203.719 274.553 203.784C273.642 203.849 272.861 203.329 272.015 203.394C270.063 203.524 269.737 206.779 268.761 203.915C268.566 204.045 267.655 205.086 267.525 205.086C267.264 205.086 266.744 204.305 266.483 204.11C265.924 203.881 265.33 203.748 264.726 203.719C263.449 203.535 262.149 203.579 260.887 203.849C258.609 204.37 256.332 204.175 254.38 204.11C253.924 204.11 253.599 204.435 253.078 204.435C252.818 204.435 252.492 203.98 252.232 203.915C250.67 203.524 249.109 203.784 247.547 203.719C243.838 203.524 240.324 203.394 236.744 202.612C229.391 200.919 221.907 200.594 214.489 199.096C210.715 198.315 207.07 197.924 203.361 196.883C202.06 196.492 200.693 196.362 199.587 195.841C198.481 195.385 198.936 194.734 197.179 195.971C196.398 194.083 196.333 194.278 194.446 193.627C193.426 193.3 192.444 192.863 191.518 192.325C191.453 192.26 190.346 189.395 190.216 189.07C189.761 187.377 190.151 185.423 190.346 183.665C190.802 179.759 191.453 175.917 191.453 172.011C191.453 170.253 191.778 170.253 192.299 168.951C192.494 168.56 192.949 168.56 193.014 167.974C193.079 167.128 192.233 166.607 192.299 165.63C192.429 164.328 193.73 163.026 194.186 161.854C194.706 160.421 194.706 158.859 195.032 157.361C195.487 155.343 196.333 153.52 196.724 151.501C197.114 149.808 197.114 148.441 198.025 147.009C198.936 145.576 198.676 144.404 199.392 142.907C200.042 141.605 200.888 141.084 201.344 139.521C202.415 135.598 204.131 131.879 206.42 128.518C208.502 136.721 210.715 145.251 216.441 151.697C218.784 154.366 221.842 157.101 225.421 157.882C229.456 158.794 232.71 156.45 235.313 153.585C241.56 146.879 244.163 139.326 244.553 130.211C244.618 127.932 244.618 125.653 244.618 123.374C244.618 122.332 244.098 119.793 244.749 118.947C245.529 118.035 247.677 118.621 248.783 117.97C250.15 117.189 251.712 115.17 251.061 113.542C254.77 115.235 258.284 117.449 262.384 117.905C263.991 118.006 265.605 117.941 267.199 117.71C267.134 117.71 268.306 117.97 268.371 117.97C268.468 117.827 268.613 117.722 268.779 117.675C268.945 117.627 269.123 117.639 269.282 117.71C269.423 117.712 269.561 117.756 269.677 117.837C269.793 117.919 269.882 118.033 269.932 118.165C275.789 118.751 281.711 115.886 286.722 112.761C289.65 110.938 292.839 108.334 293.685 104.818C294.01 103.581 293.75 102.409 294.986 101.758C296.027 101.237 298.045 102.018 299.151 102.083C303.055 102.344 306.83 102.018 310.604 103.125C312.947 103.841 316.916 108.789 318.543 105.274C319.259 105.925 318.869 107.097 319.584 107.748C320.235 108.334 322.383 108.724 323.294 109.18C324.66 109.896 325.506 110.873 326.743 111.785C328.239 112.891 329.801 112.957 331.233 114.259C336.243 118.686 342.1 121.877 347.697 125.588C354.334 129.95 360.191 135.094 367.349 138.61C374.637 142.256 381.665 145.251 389.67 147.139C393.281 148.041 396.958 148.651 400.667 148.962C402.424 149.092 404.051 149.027 405.743 149.548C406.493 149.838 407.283 150.014 408.086 150.069C408.671 150.069 409.517 149.743 410.233 149.743C411.73 149.743 412.446 149.678 413.812 150.199C415.233 150.8 416.76 151.11 418.302 151.111C420.255 151.176 421.426 150.394 423.248 149.939C424.68 149.548 425.981 149.743 427.283 148.962C433.069 145.339 437.733 140.177 440.753 134.052C444.202 127.085 446.935 118.621 447.456 110.808C447.696 106.386 446.894 101.97 445.113 97.9162C444.658 96.7442 441.729 91.861 442.64 90.9495C443.616 89.9077 446.935 92.2517 447.846 92.7726C450.775 94.4003 456.111 94.9212 458.193 97.5907C458.714 96.5489 461.642 98.0464 462.618 98.5022C463.399 98.8277 463.594 99.4788 464.57 99.5439C465.482 99.6091 466.458 98.8929 467.304 98.6324C466.653 100.39 468.735 100.455 470.167 100.521C471.188 100.545 472.21 100.502 473.225 100.39C474.982 100.26 474.982 99.8695 476.609 98.958C476.545 99.6156 476.611 100.279 476.804 100.911C477.846 99.4137 479.798 100.455 481.164 99.8044C480.188 98.3069 484.418 97.8511 485.459 98.1767C488.258 99.1533 486.566 102.344 486.761 104.232ZM290.171 208.863C291.797 208.342 293.489 207.886 295.181 207.43C293.945 208.602 292.643 210.686 290.821 211.011C288.674 211.402 287.763 209.579 290.171 208.863ZM208.372 209.709C211.17 210.035 214.229 209.774 216.636 211.467C215.465 212.834 214.684 214.267 212.667 213.486C211.04 212.769 209.673 210.946 208.372 209.709ZM301.559 284.78C299.737 283.153 299.997 282.371 300.843 280.288C301.233 279.376 301.819 276.512 303.186 277.358C303.706 277.684 304.292 280.744 304.357 281.395C304.552 282.827 303.706 286.734 301.559 284.78ZM311.906 275.275C311.255 272.865 311.255 270.326 310.669 267.852C310.018 265.248 309.172 262.708 308.912 260.039C318.608 261.732 324.074 271.368 328.304 279.376C330.517 283.609 332.729 288.362 333.575 293.115C334.421 297.737 332.99 301.253 331.298 305.42C330.452 307.504 329.085 308.285 327.458 309.652C326.027 310.889 325.506 312.973 324.009 314.08C322.903 314.926 321.471 315.317 320.3 316.163C319.129 317.01 318.023 317.791 316.851 318.572C315.485 319.419 311.45 322.609 309.628 321.958C308.261 321.437 308.847 319.809 309.237 318.703C309.931 316.524 310.496 314.306 310.929 312.061C312.069 305.954 312.787 299.776 313.077 293.57C313.272 287.45 313.532 281.199 311.906 275.275ZM303.836 303.011C303.966 303.337 304.617 305.876 303.251 305.355C302.275 304.964 303.706 303.467 303.836 303.011ZM309.498 200.529C310.669 200.073 311.125 201.44 312.101 201.505C313.402 201.571 313.728 200.073 315.094 200.008C318.543 199.878 323.489 203.198 326.222 204.956C324.855 206.649 324.27 208.472 324.986 210.556C325.571 212.444 327.849 214.527 327.784 216.481C327.719 218.434 325.246 219.736 324.465 221.494C323.749 223.122 323.489 226.377 325.701 227.093C329.476 228.331 330.322 221.299 333.185 221.234C334.421 221.234 335.983 223.512 336.829 224.229C338.827 225.745 340.988 227.033 343.271 228.07C344.833 228.786 346.981 230.219 348.087 228.265C348.998 226.703 348.282 224.294 347.371 222.992C346.33 221.494 337.22 214.527 337.805 213.941C338.131 213.616 340.408 214.527 340.734 214.788C341.449 215.374 341.71 216.416 342.426 217.067C343.532 218.043 344.963 218.434 346.33 218.955C349.193 219.931 351.015 223.317 353.814 224.88C355.44 225.791 356.417 227.549 357.783 228.917C359.54 230.674 361.362 232.563 361.102 235.167C360.907 236.99 360.646 241.222 359.605 242.72C358.499 244.347 356.612 243.762 354.985 244.152C353.098 244.608 351.536 246.105 351.926 248.189C352.317 250.403 354.074 250.533 355.896 250.598C361.102 250.728 359.15 254.049 360.972 257.695C361.948 259.648 363.575 260.43 364.746 258.151C365.657 256.328 364.03 253.398 365.006 251.77C366.178 249.817 372.62 250.338 373.987 251.835C375.028 252.942 375.548 254.505 376.525 255.742C378.086 257.565 378.672 260.104 379.648 262.253C380.624 264.597 381.47 267.006 382.251 269.415C382.772 271.107 383.943 273.842 381.21 272.345C379.323 271.303 377.891 269.024 375.483 268.959C373.076 268.894 371.709 271.368 372.425 273.517C373.076 275.6 376.199 276.512 376.525 278.66C376.915 281.004 372.945 283.348 371.774 285.041C368.976 288.948 371.319 293.375 375.874 290.054C377.501 288.882 379.193 286.473 381.015 285.757C383.878 284.585 383.878 288.948 385.245 290.575C385.96 291.422 386.286 290.575 385.83 291.877C385.7 292.333 384.854 292.529 384.724 293.115C384.659 293.57 385.049 293.766 385.049 294.091C385.142 294.942 385.076 295.803 384.854 296.63C384.668 298.121 384.581 299.621 384.594 301.123C384.399 304.313 384.333 307.374 384.008 310.564C383.813 312.322 383.422 315.968 385.505 316.814C384.789 317.986 383.748 321.242 382.316 320.981C382.446 321.763 382.381 322.739 383.097 323.26C383.292 322.804 383.422 322.349 383.618 321.828C384.008 322.87 383.683 323 383.618 323.781C383.618 322.87 382.772 325.018 383.227 324.758C382.837 325.083 382.316 325.279 381.731 325.669C380.885 326.255 380.494 327.102 379.843 327.883C378.672 329.315 378.737 330.813 377.761 332.31C376.329 334.459 374.442 336.608 372.945 338.756C371.709 340.514 369.366 341.491 368.39 343.379C367.74 344.551 367.479 345.983 366.438 346.83C364.876 348.002 362.859 349.174 361.167 350.411C360.126 351.192 359.345 352.299 358.239 353.015C357.718 353.406 356.091 353.797 356.091 354.578C354.074 353.992 352.642 351.974 351.08 350.736C350.039 349.89 347.501 348.783 347.631 347.155C347.762 345.788 349.714 344.095 350.169 342.663C350.56 341.426 351.08 339.147 350.039 338.105C347.827 335.891 345.354 340.579 344.117 341.882C341.645 344.421 340.603 341.882 338.651 339.993C335.463 336.998 333.445 340.124 334.551 343.835C335.137 345.723 337.285 347.416 337.415 349.304C337.545 351.388 335.267 352.494 334.356 354.187C333.51 355.75 333.12 358.55 334.682 359.852C336.439 361.284 338 359.591 339.172 358.224C340.083 357.182 341.059 354.903 342.556 354.773C344.378 354.643 347.371 357.964 348.803 358.94C346.72 359.526 345.419 361.349 343.662 362.456C341.384 363.889 338.131 364.279 335.528 365.256C333.12 366.233 330.907 366.949 328.565 368.121C325.831 369.488 322.448 369.879 319.519 370.855C316.916 371.767 314.443 373.004 311.775 373.785C308.782 374.632 305.658 375.153 302.665 375.869C299.97 376.624 297.197 377.061 294.4 377.171C291.732 377.171 291.798 375.543 290.886 373.264C289.845 370.66 288.153 368.316 287.112 365.777C286.071 363.303 287.633 362.391 289.129 360.503C290.561 358.745 290.171 358.484 291.993 359.722C294.4 361.349 295.962 360.242 297.784 358.354C299.411 356.661 300.062 355.294 302.405 356.466C304.747 357.638 307.025 359.526 309.563 360.242C311.58 360.828 313.077 360.438 313.402 358.224C313.793 355.88 312.426 354.187 310.734 352.755C309.433 351.713 306.634 350.411 306.114 348.653C305.593 346.83 308.261 344.16 308.522 342.077C308.847 339.473 307.741 337.584 305.333 339.407C303.576 340.71 302.34 343.509 299.932 343.705C300.648 340.84 302.079 338.301 303.381 335.631C304.422 333.417 305.398 330.943 308.261 330.683C309.172 330.618 309.823 330.683 310.669 330.552C311.84 330.357 313.402 330.162 314.704 329.836C317.632 329.12 320.235 326.841 322.968 325.539C323.619 327.232 324.66 331.985 327.198 329.185C329.085 327.102 327.003 323.586 328.695 321.307C332.274 316.554 340.018 320.07 344.703 317.596C346.72 316.554 348.412 313.168 345.549 312.126C343.857 311.54 339.042 313.754 338 312.126C337.285 310.955 340.278 306.462 340.668 305.225C341.775 301.383 341.645 297.347 341.645 293.375C343.922 294.286 346.786 296.5 349.258 296.761C351.796 297.086 352.252 294.091 351.536 292.138C350.625 289.468 347.566 287.255 345.484 285.497C344.573 284.715 342.165 283.478 341.645 282.371C341.124 281.199 341.84 280.613 342.426 279.572C343.337 277.944 345.549 273.777 343.141 272.214C340.929 270.782 339.692 274.754 338.261 275.6C335.853 277.032 335.072 273.777 334.096 272.084C332.404 269.089 329.996 266.355 327.849 263.685C325.897 261.211 324.725 259.518 324.4 256.393C324.205 253.984 323.684 252.161 326.482 251.64C331.493 250.663 338.781 253.072 342.816 248.97C344.963 246.822 343.402 244.673 340.734 244.738C337.267 244.966 333.789 244.966 330.322 244.738C328.434 244.608 324.53 245.064 323.554 243.11C322.317 240.636 324.4 236.599 322.122 234.386C319.259 231.586 318.543 237.902 318.478 239.66C318.413 240.962 318.738 242.85 317.957 243.957C317.242 244.999 315.875 244.999 314.769 245.324C312.036 246.236 310.604 249.621 314.248 250.338C315.485 250.598 317.177 250.207 318.218 251.119C319.259 252.096 318.868 253.788 318.999 255.025C316.461 252.03 311.125 253.398 307.676 252.291C305.854 251.705 305.528 250.924 304.747 249.166C303.836 247.017 301.689 244.348 301.624 241.938C301.559 239.92 303.251 238.423 304.031 236.665C304.805 234.922 305.204 233.037 305.203 231.13C304.943 227.093 297.719 231.195 296.223 232.758C293.489 235.558 290.171 239.139 291.667 243.11C292.969 246.626 293.685 248.645 289.129 248.384C287.438 248.254 283.989 248.58 282.687 247.929C281.711 247.408 282.101 246.496 282.036 245.129C282.036 243.957 282.101 242.199 281.32 241.157C278.652 237.576 278.067 246.496 276.57 247.473C274.227 248.97 269.347 247.408 269.737 251.9C270.063 255.872 275.399 254.244 276.895 257.63C277.611 259.258 277.481 261.146 278.327 262.773C279.629 265.052 281.19 264.922 282.036 262.578C282.622 260.95 281.841 259.258 282.297 257.695C282.947 255.416 286.071 255.677 288.023 255.416C290.28 255.074 292.502 254.529 294.661 253.788C297.394 252.877 297.264 254.374 297.719 256.458C298.24 258.932 299.021 261.276 299.541 263.815C299.997 266.159 301.233 268.633 301.429 270.977C301.559 272.735 300.973 272.605 299.476 273.647C297.849 274.754 296.092 277.684 294.205 278.139C291.407 278.856 288.544 272.41 286.006 275.73C284.9 277.163 285.355 280.158 286.136 281.59C287.177 283.543 289.064 283.999 287.503 286.213C286.331 287.841 284.835 289.143 284.704 291.422C284.574 293.505 286.006 295.458 288.218 294.872C289.975 294.352 291.017 292.529 292.383 291.422C294.726 289.534 296.613 291.291 299.021 292.333C300.908 293.18 304.357 293.766 305.268 295.719C306.439 298.258 304.943 299.235 302.73 298.519C303.576 301.383 302.47 303.011 302.144 305.941C301.884 308.35 301.363 310.499 300.973 312.778C300.517 315.838 300.452 315.512 297.329 315.642C294.661 315.708 292.058 315.642 289.39 315.512C287.047 315.382 285.42 315.642 285.29 312.778C285.225 311.54 286.006 307.243 283.533 307.764C281.32 308.22 281.971 312.126 281.255 313.559C280.214 315.708 278.392 315.056 276.44 315.577C274.423 316.098 272.796 317.596 273.316 319.94C273.902 322.414 276.115 322.218 278.067 322.804C281.06 323.651 280.409 328.143 282.166 330.552C282.882 331.529 283.663 332.506 284.835 331.724C287.047 330.227 284.965 326.646 285.55 324.823C286.136 322.935 288.218 323.325 290.171 323.065C293.034 322.674 296.092 321.307 298.956 321.307C298.435 323 296.873 323.911 296.288 325.669C295.962 326.581 296.288 328.339 295.832 329.12C295.377 329.966 294.01 330.227 293.424 331.334C292.643 332.831 292.448 334.459 291.537 335.957C289.455 339.473 287.633 343.054 285.355 346.569C283.075 350.158 280.507 353.555 277.676 356.727C274.878 359.787 274.032 358.289 271.559 355.815C270.583 354.838 268.501 353.666 268.175 352.169C267.915 350.671 269.152 349.499 269.802 348.262C270.713 346.635 272.275 343.9 271.885 342.012C271.169 338.431 267.915 341.751 266.679 343.054C264.531 345.397 263.36 347.872 260.106 346.049C258.024 344.877 255.421 341.621 252.753 342.793C250.28 343.9 250.996 347.09 252.492 348.653C253.338 349.564 254.575 350.085 255.486 350.932C257.438 352.755 256.332 353.276 255.421 355.294C254.705 356.987 254.575 360.242 255.941 361.61C258.544 364.344 260.627 358.81 263.035 358.745C264.206 358.68 269.021 361.87 269.347 362.977C269.932 364.995 264.792 367.339 263.36 368.316C260.171 370.465 256.657 372.743 253.078 374.176C248.848 375.869 251.972 370.53 249.694 368.707C246.636 366.363 246.441 372.743 246.115 374.306C245.269 378.538 240.844 378.603 237.265 379.645C234.987 380.296 232.71 381.012 230.432 381.598C228.48 382.119 226.267 382.054 224.38 382.705C222.688 383.226 221.582 384.333 219.695 384.333C219.109 384.333 218.589 384.138 218.003 384.138C216.832 384.138 215.725 384.789 214.619 384.724C212.732 384.593 213.578 384.007 212.927 382.705C212.341 381.468 210.78 381.012 209.543 380.622C206.094 379.515 203.231 380.491 202.71 376.064C202.58 374.697 202.776 369.162 200.173 369.814C197.179 370.595 199.782 377.171 197.96 378.799C197.049 379.58 195.682 379.189 194.576 379.45C192.754 379.84 191.973 381.208 190.021 381.077C188.382 380.914 186.802 380.38 185.401 379.515C183.253 378.408 180.65 377.692 178.893 376.064C176.42 373.785 175.379 370.204 174.273 367.144C172.805 362.682 171.973 358.035 171.8 353.341C171.735 351.713 171.019 350.541 170.694 348.978C170.368 347.351 171.279 347.025 171.54 345.528C171.735 344.03 171.67 342.468 171.93 340.84C172.386 338.561 172.516 336.217 172.971 333.873C173.687 330.032 174.793 326.255 175.704 322.479C175.965 321.307 176.485 317.531 177.917 317.205C178.958 316.945 181.431 318.507 182.472 319.028C184.424 319.94 186.116 321.242 188.199 321.893C189.305 322.218 190.672 322.218 191.322 323.195C192.429 324.758 191.518 327.883 191.973 329.771C192.559 332.05 194.446 333.027 195.943 330.748C196.724 329.511 196.528 328.078 196.658 326.711C196.789 324.758 196.854 324.302 199.001 324.432C201.149 324.562 203.231 325.409 205.444 325.474C207.461 325.539 209.413 325.539 211.43 325.409C216.122 325.223 220.756 324.3 225.161 322.674C228.22 321.502 231.799 318.963 235.183 319.028C239.933 319.158 238.632 323.586 239.282 326.841C239.673 328.86 243.057 335.045 244.358 330.032C245.009 327.557 242.861 323.976 244.098 321.698C245.595 319.028 251.061 321.242 253.534 320.656C255.551 320.135 258.935 317.335 257.503 314.861C256.852 313.689 255.551 313.884 254.38 313.819C252.167 313.624 249.955 313.364 247.807 313.038C246.571 312.843 244.684 312.778 244.163 311.345C243.707 310.108 245.725 306.983 246.18 305.811C247.553 302.24 248.216 298.436 248.132 294.612C248.23 292.678 248.165 290.74 247.937 288.817C247.807 288.101 246.766 285.887 247.287 285.236C247.937 284.325 249.239 285.497 249.824 286.148C250.866 287.45 250.54 287.385 249.889 288.752C248.978 290.771 247.287 294.938 250.215 296.5C253.273 298.128 254.38 292.659 257.243 293.245C258.609 293.505 259.911 295.328 261.017 296.11C262.284 297.158 263.685 298.034 265.182 298.714C267.655 299.691 270.388 298.974 269.412 295.849C268.631 293.44 266.158 291.357 264.401 289.664C261.603 286.929 261.733 285.757 263.685 282.502C264.531 281.134 267.655 275.405 264.011 274.949C262.124 274.689 260.041 277.814 259 278.986C257.243 281.004 256.267 281.916 253.664 280.288C251.126 278.66 249.955 277.358 246.896 277.228C243.382 277.032 241.82 271.759 239.933 269.024C234.857 261.667 227.113 258.02 220.541 252.356C217.352 249.621 215.205 245.975 212.797 242.59C211.626 240.962 210.129 239.66 209.218 237.902C208.632 236.795 207.005 234.125 207.461 232.823C207.981 231.195 210.78 230.219 211.951 229.047C212.927 228.07 213.448 226.898 215.01 227.224C216.376 227.549 217.613 229.437 218.719 230.219C219.849 231.034 221.047 231.753 222.298 232.367C224.51 233.474 227.178 234.06 227.309 230.74C227.439 227.875 224.836 224.815 222.949 222.926C221.582 221.559 219.5 220.322 219.76 218.108C220.069 216.7 220.619 215.356 221.387 214.137C223.274 210.946 229.001 212.9 232.124 213.095C235.898 213.355 239.998 212.704 242.992 215.374C243.968 216.22 246.245 217.978 246.701 219.15C247.287 220.583 246.375 221.169 245.855 222.536C245.204 224.294 244.749 227.745 246.636 228.982C249.759 231 251.386 225.01 254.64 226.312C257.764 227.549 259.911 231.13 263.425 231.716C268.045 232.432 265.442 226.703 263.815 225.01C261.733 222.796 257.698 220.583 259.065 217.327C259.455 216.416 260.301 214.462 261.082 213.876C262.579 212.769 265.052 213.355 266.744 213.42C271.043 213.475 275.337 213.105 279.564 212.314C280.865 212.053 281.125 211.923 282.036 212.834C283.273 214.137 283.989 215.895 285.42 217.197C283.273 219.476 280.149 222.21 281.646 225.726C282.882 228.721 285.68 227.289 287.568 225.661C288.479 224.88 289.39 223.317 290.561 222.992C292.058 222.601 293.815 223.968 295.051 224.684C296.938 225.726 300.908 228.851 303.055 227.028C305.854 224.619 302.535 220.908 300.583 219.411C299.411 218.499 297.849 217.848 296.873 216.741C295.572 215.244 296.353 215.048 297.134 213.681C298.565 211.207 298.045 208.016 300.387 206.128C301.689 205.086 303.511 204.37 305.008 203.589C306.569 202.677 308.131 201.115 309.498 200.529ZM333.185 210.1C332.599 209.774 332.079 209.384 331.493 209.058C332.729 208.472 333.64 208.537 333.185 210.1ZM364.291 240.05C364.486 238.878 365.397 236.86 366.633 237.902C367.414 238.618 366.568 241.222 368.455 240.441C368.52 242.069 367.349 241.938 369.106 243.436C366.828 243.241 363.64 243.306 364.291 240.05ZM275.334 379.515C275.919 377.952 275.919 375.543 277.676 376.976C277.741 375.087 277.351 369.162 280.735 369.423C282.101 369.553 282.101 370.725 282.492 371.832C283.241 373.646 284.111 375.408 285.095 377.106C281.703 377.178 278.37 378.001 275.334 379.515ZM276.44 400.936C278.392 402.368 279.368 400.675 281.19 400.024C282.882 399.438 284.639 399.764 286.461 399.373C288.804 398.852 291.472 398.918 293.75 398.918C294.335 398.918 295.442 398.983 296.027 399.048C297.069 399.178 296.938 399.373 298.045 399.634C298.451 399.537 298.865 399.472 299.281 399.438C299.526 399.43 299.769 399.486 299.986 399.6C300.202 399.714 300.386 399.883 300.517 400.089C301.494 400.415 301.819 400.22 302.73 400.415C304.819 400.987 306.654 402.249 307.936 403.996C310.799 407.512 310.929 412.851 310.864 417.213C310.799 418.449 310.799 419.688 310.864 420.924C310.994 422.096 311.775 423.789 311.45 424.896C310.929 426.589 309.433 426.198 307.611 426.329C306.569 426.394 305.463 427.045 304.682 427.11C303.836 427.175 303.511 426.849 302.73 426.654C300.583 426.198 298.045 426.849 295.897 427.435C293.75 428.021 291.798 428.607 289.585 429.063C288.153 429.324 286.852 429.519 285.42 429.649C284.249 429.779 283.728 430.43 282.687 430.691C281.711 430.951 280.735 430.561 279.694 430.756C278.327 431.016 277.351 432.058 276.115 432.514C274.358 433.23 271.624 432.188 270.843 434.337C270.518 432.254 268.566 432.84 267.069 432.644C264.661 432.319 262.254 431.277 259.911 430.561C258.024 429.975 251.386 424.766 250.15 426.849C250.15 426.654 250.41 425.417 250.15 425.287C249.434 424.766 249.434 425.092 248.718 424.766C247.777 424.396 246.931 423.817 246.245 423.073C244.553 421.445 242.276 420.599 240.519 419.167C236.094 415.455 234.532 407.903 233.491 402.564C232.059 405.103 232.58 401.847 232.84 400.741C233.426 398.201 232.645 396.964 232.515 394.49C232.384 392.211 233.361 391.755 235.443 391.56C237.942 391.29 240.42 390.855 242.861 390.258C245.217 389.737 247.493 388.905 249.629 387.784C251.581 386.677 253.599 386.286 255.616 385.31C257.829 384.268 259.976 383.161 262.189 382.119C263.165 381.663 267.59 378.343 268.306 378.538C269.867 378.929 268.371 381.663 267.915 382.38C266.679 384.203 264.661 385.049 262.839 386.221C261.212 387.263 256.267 392.211 261.278 391.755C264.596 391.43 266.874 387.914 269.021 391.886C269.802 393.318 270.909 394.425 269.998 395.857C268.761 397.876 265.312 398.852 263.49 400.22C261.928 401.392 258.74 406.861 261.928 407.447C262.464 407.547 263.016 407.53 263.544 407.395C264.072 407.26 264.565 407.011 264.987 406.665C265.442 406.21 265.442 405.168 265.898 404.842C266.549 404.387 267.85 404.973 268.631 404.712C269.737 404.322 269.932 403.736 270.388 402.694C271.559 403.215 271.559 403.931 272.861 403.28C273.316 403.085 273.446 402.238 273.967 401.978C274.618 401.652 274.878 402.629 275.203 402.499C276.115 402.368 276.115 401.913 276.44 400.936ZM207.201 384.789C205.248 384.919 203.166 385.114 201.474 383.877C203.491 384.007 205.248 384.463 207.266 384.007C208.047 383.812 209.348 383.096 210.194 383.356C213.057 384.268 207.981 384.724 207.201 384.789ZM201.799 214.462C201.799 213.811 201.214 204.631 204.337 208.212C205.183 209.188 204.272 210.491 204.142 211.597C204.028 213.445 204.532 215.277 205.574 216.806C206.485 218.239 208.177 219.541 207.916 221.364C207.721 222.992 206.029 224.424 205.183 225.791C203.166 222.666 201.995 218.304 201.799 214.462ZM194.967 118.361C187.698 119.101 180.51 120.496 173.492 122.528C166.659 124.546 160.217 127.801 153.774 130.862C152.473 125.197 151.041 119.467 149.74 113.803C149.089 111.068 148.503 108.334 147.918 105.534C147.527 103.581 145.965 99.9346 146.616 97.9813C146.942 96.9396 147.397 96.9396 148.113 96.3536C148.627 95.8007 149.194 95.2992 149.805 94.8561C151.46 94.2906 153.197 94.0045 154.946 94.0096C155.987 94.0747 156.573 94.4654 157.614 94.205C158.525 93.9445 159.306 93.2283 160.152 92.8377C162.364 91.861 165.097 91.5355 167.44 91.0146C169.718 90.4937 171.995 90.4286 174.273 89.9078C176.225 89.452 177.201 88.0196 178.893 88.0847C183.469 88.1921 188.04 87.7107 192.494 86.6523C197.374 85.4803 202.71 85.6756 207.721 85.5454C209.738 85.4803 211.105 85.0245 211.17 87.3034C211.17 90.038 210.064 93.0981 209.543 95.7025C208.242 101.495 207.329 107.368 206.81 113.282C206.55 116.277 205.378 116.082 202.906 116.993C200.303 117.97 197.83 118.035 194.967 118.361ZM156.833 178.782C158.59 179.043 158.395 174.159 158.525 173.183C162.755 181.191 167.57 188.939 171.344 197.273C172.19 199.227 173.036 201.18 173.947 203.133C174.598 204.435 176.03 206.193 175.965 207.756C175.9 209.319 174.663 209.97 173.297 210.556C171.8 211.207 171.279 211.532 170.238 210.751C169.002 209.839 167.961 207.105 167.18 205.803C166.008 203.784 164.902 201.701 163.731 199.682C161.648 195.971 159.176 192.455 157.484 188.549C155.857 184.903 153.449 181.777 151.692 178.196C150 174.68 147.592 171.295 145.64 167.844C147.592 166.997 150.065 164.979 152.343 165.044C154.685 165.174 154.62 167.388 154.685 169.276C154.816 171.164 154.1 178.326 156.833 178.782ZM162.559 215.048C161.518 216.285 159.11 217.067 157.614 217.718C155.596 218.694 153.514 219.541 151.497 220.517C144.859 223.773 138.222 226.703 131.454 229.698C127.94 231.26 124.491 232.888 121.107 234.581C119.35 235.493 115.38 238.618 113.298 238.683C110.955 238.748 110.89 233.995 110.37 232.237C109.914 230.74 109.133 229.568 108.548 228.135C108.352 227.549 108.482 227.093 108.157 226.573C107.767 225.922 106.66 225.401 106.14 224.815C103.797 222.406 101.845 219.345 99.8276 216.676C98.0055 214.202 94.8819 211.142 94.0359 208.081C92.344 202.157 102.3 198.836 106.14 196.427C112.842 192.26 119.545 187.963 125.922 183.275C128.851 181.126 131.649 178.978 134.577 176.829C135.944 175.852 139.718 172.011 141.475 173.378C142.126 173.899 142.126 175.266 142.386 176.048C143.02 177.609 143.828 179.095 144.794 180.475C145.575 181.777 146.746 183.079 147.267 184.512C147.853 186.205 147.853 187.181 148.959 188.679C150.976 191.413 151.952 194.604 153.774 197.469C155.596 200.203 157.288 202.222 158.46 205.217C159.11 206.975 160.217 208.472 161.128 210.1C161.583 210.881 162.039 211.597 162.429 212.379C163.275 213.876 163.536 213.876 162.559 215.048ZM105.489 238.292C104.188 239.204 102.3 237.641 101.064 237.641C100.543 237.641 100.023 238.032 99.6323 238.032C98.5261 238.032 97.6801 237.251 96.6389 236.925C92.0186 235.362 86.5524 235.297 82.6479 232.107C74.8389 225.791 78.5482 213.095 79.9798 204.891C80.2401 203.198 80.7607 200.919 79.4592 199.552C77.9625 198.055 75.75 198.966 74.3834 200.138C73.0169 201.375 72.0407 203.133 70.8694 204.566C69.0473 206.91 67.03 209.058 65.0127 211.207C57.7894 218.825 50.1757 227.614 41.2605 233.214C37.5512 235.558 34.1673 238.683 30.1327 240.506C25.2521 242.655 30.2629 234.386 31.1739 233.018C36.9655 224.229 45.2951 217.262 52.3882 209.579C53.6897 208.147 55.5769 206.193 55.6419 204.045C55.707 200.919 52.9088 201.18 50.6963 202.026C48.6139 202.873 47.6378 204.891 45.9458 206.258C43.7985 207.933 41.5371 209.456 39.1781 210.816C34.1745 213.742 29.0271 216.415 23.7554 218.825C21.2826 219.997 18.8748 221.103 16.402 222.21C15.7512 222.536 11.7166 225.075 11.9118 222.861C11.9118 222.536 14.5148 219.411 14.8402 219.345C16.402 218.759 17.1829 220.517 18.6145 218.239C19.5906 216.611 19.7859 215.764 21.1524 214.527C21.4127 214.332 21.5429 213.811 21.7381 213.42C21.7381 213.551 22.7793 212.509 22.5841 212.704C22.9049 212.395 23.2091 212.069 23.4951 211.728C24.6014 210.295 26.7488 210.23 27.6599 208.602C28.0503 207.951 27.79 207.17 28.2456 206.519C28.8963 205.672 30.1978 205.282 30.9787 204.5C31.6294 203.849 32.085 203.329 32.4754 202.873C32.7357 202.612 33.1912 202.417 33.5166 202.091C34.2975 201.31 34.2324 200.594 35.3387 199.943C36.3148 199.357 36.7703 199.878 37.0957 198.445C38.267 199.227 38.1369 198.12 38.6575 197.273C39.3082 196.232 40.0891 195.776 40.9351 194.994C42.8223 193.302 44.6443 190.827 46.2712 188.744C50.3058 183.535 53.6246 177.415 54.796 170.839C55.0563 169.276 55.2515 167.714 55.3816 166.086C55.4467 165.239 55.1864 163.221 55.707 162.375C56.4879 161.072 58.0497 161.593 59.221 161.072C59.6115 160.877 60.0019 160.356 60.3924 160.226C60.913 160.031 61.5637 160.226 62.0843 160.031C62.2795 159.966 62.3446 159.38 62.67 159.249C63.3452 159.196 64.0246 159.24 64.6873 159.38C66.1478 159.37 67.5975 159.128 68.9822 158.663C70.2837 158.208 71.3249 157.296 72.6264 156.905C73.2702 157.025 73.9283 157.047 74.5786 156.971C74.7088 156.45 74.7739 155.864 74.904 155.343C75.75 155.929 78.6133 156.71 79.5243 156.58C80.9559 156.385 80.6306 155.082 81.867 156.775C82.5828 156.189 83.2336 155.538 83.9494 154.952C84.47 157.166 88.0491 156.059 89.741 156.189C92.0186 156.385 93.8407 155.929 95.9231 156.71C98.461 157.687 100.739 158.728 103.472 158.989C105.424 159.184 106.205 160.096 108.092 160.617C110.63 161.333 110.825 162.179 110.044 164.784C109.394 166.867 108.873 168.495 109.784 170.644C111.476 174.485 115.966 176.048 118.894 178.652C112.062 183.47 105.359 188.158 98.7213 193.237C95.9882 195.385 92.9947 197.534 91.433 200.724C90.0013 203.719 89.1553 207.235 88.3094 210.425C86.2921 217.718 91.9535 222.601 97.7452 225.791C98.8514 226.768 107.116 237.12 105.489 238.292ZM94.2311 247.147C93.8407 245.715 93.9058 245.389 95.2073 244.868C95.7279 244.673 97.6801 244.413 98.0055 245.129C98.7213 246.691 94.947 246.691 94.2311 247.147ZM151.692 145.641C152.148 148.767 152.668 151.827 153.059 154.952C153.319 156.645 153.839 158.208 152.538 159.51C151.822 160.226 150.065 160.552 149.089 160.942C147.722 161.528 146.421 162.179 145.185 162.83C142.907 164.067 140.499 164.784 138.222 165.825C137.245 166.281 136.66 167.258 135.814 167.844C134.642 168.69 133.211 169.146 132.039 169.992C129.892 171.49 127.94 173.248 125.727 174.745C123.254 176.438 122.799 175.917 121.432 173.378C120.196 171.099 118.699 170.058 116.942 168.3C116.226 167.583 113.819 163.677 115.901 163.351C116.422 163.286 118.309 164.067 118.699 164.328C119.35 164.719 120.326 166.932 120.847 166.997C121.758 167.063 122.994 164.393 123.58 163.677C127.4 158.998 131.554 154.603 136.009 150.525C138.278 148.439 140.716 146.544 143.297 144.86C145.119 143.688 146.746 141.995 148.568 140.823C148.949 140.498 149.392 140.255 149.87 140.107C150.846 139.651 151.171 140.042 150.911 141.214C151.562 142.386 151.497 144.339 151.692 145.641ZM68.1363 141.54C69.0473 140.563 70.2186 139.847 71.0646 138.805C71.5201 138.219 71.8455 137.177 72.3661 136.787C73.2772 136.135 74.5786 136.396 75.6198 135.55C76.661 134.703 77.507 133.661 78.5482 132.75C80.6956 130.797 82.9733 128.973 85.0556 127.02C86.2921 125.913 87.5285 124.416 88.5697 123.7C88.8458 123.446 89.1518 123.228 89.4807 123.048C90.1315 122.723 90.4568 123.048 91.3679 122.723C92.0186 122.528 92.4091 121.746 92.9297 121.356C94.101 120.444 95.6628 120.119 96.8341 119.272C98.0055 118.426 98.5261 117.058 100.088 116.407C101.975 115.561 103.407 116.212 104.773 114.584C105.359 113.933 105.489 113.087 106.4 112.631C107.441 112.11 108.417 112.631 109.394 112.11C110.109 111.719 110.565 110.873 111.281 110.482C112.517 109.701 113.949 109.636 115.12 108.659C116.096 107.878 115.576 107.943 116.747 107.618C117.296 107.518 117.839 107.388 118.374 107.227C120.131 106.641 123.059 105.86 124.1 104.167C124.621 104.948 124.816 105.078 125.662 104.883C126.106 104.504 126.52 104.09 126.899 103.646C126.943 103.725 127.006 103.791 127.083 103.84C127.159 103.888 127.246 103.917 127.337 103.923C127.427 103.93 127.517 103.914 127.6 103.877C127.682 103.84 127.754 103.783 127.81 103.711C129.697 103.06 131.389 101.953 133.276 101.367C133.55 101.494 133.811 101.647 134.057 101.823C134.447 101.823 134.577 101.693 134.512 101.302C135.27 101.132 136.011 100.892 136.725 100.586C138.026 99.9997 139.393 98.6975 140.955 99.1533C143.493 99.9346 143.623 105.078 144.013 107.162C145.054 112.175 146.161 117.254 147.267 122.267C147.722 124.286 148.113 126.369 148.699 128.387C149.089 129.69 150 131.643 149.675 133.01C149.284 134.703 147.592 135.289 146.161 136.07C144.233 137.164 142.365 138.36 140.564 139.651C132.82 144.99 127.029 152.348 121.562 159.9C120.105 158.072 118.231 156.621 116.096 155.668C114.925 155.213 113.819 155.603 112.647 155.017C111.825 154.512 111.042 153.946 110.305 153.324C105.278 150.079 99.7307 147.722 93.9058 146.358C82.3225 143.818 70.9995 147.725 59.7416 149.613C62.0193 146.227 65.4682 144.274 68.1363 141.54ZM145.705 56.3763C147.657 49.9305 151.041 43.6149 155.792 38.7968C158.172 36.2875 161.025 34.274 164.186 32.8718C166.919 31.6998 170.173 30.5279 170.173 34.3693C170.108 42.6382 168.156 50.7769 167.961 59.0458C167.765 67.1194 169.067 73.6304 174.013 80.2064C170.889 80.9226 167.83 81.6388 164.707 82.4202C162.364 83.0061 159.891 83.6572 157.679 84.0479C155.521 84.3407 153.389 84.7978 151.302 85.4152C149.87 85.9361 147.527 87.4336 145.965 87.108C143.362 86.5872 143.948 77.0812 143.818 74.8023C143.272 68.5962 143.913 62.3428 145.705 56.3763ZM193.86 68.8774C197.439 64.515 201.214 59.4365 207.266 58.5901C213.122 57.8088 215.27 64.8406 214.879 69.5936C214.749 71.2213 214.489 75.3883 213.383 76.6254C212.081 78.0578 209.804 76.951 208.177 76.7556C201.149 75.779 193.86 77.4067 186.832 77.4067C189.11 74.5419 191.518 71.7422 193.86 68.8774ZM222.818 86.2616C225.291 86.5872 227.244 86.9778 226.072 89.7775C223.73 95.3769 221.907 100.716 223.925 106.836C225.487 111.524 230.562 117.189 235.573 118.1C237.33 118.426 239.998 117.84 241.039 119.663C242.015 121.225 240.974 126.044 240.844 127.801C240.454 134.378 238.762 140.954 234.467 146.097C230.692 150.72 226.007 154.301 220.541 149.939C215.855 146.293 213.122 139.717 211.756 134.117C211.138 131.139 210.811 128.108 210.78 125.067C210.65 122.332 210.129 120.639 213.187 120.053C214.033 119.923 216.051 119.923 216.051 118.686C216.051 116.993 213.838 117.644 212.992 117.579C209.738 117.254 211.235 113.412 211.561 111.003C212.081 106.836 212.927 102.669 213.708 98.5022C214.359 94.9863 214.424 90.2984 215.855 87.0429C216.701 85.0896 221.192 86.0663 222.818 86.2616ZM228.87 98.6975C229.261 96.4187 229.456 93.5539 231.734 92.3168C234.207 90.9495 235.443 93.1632 236.679 95.0514C239.933 99.9346 243.512 104.492 244.098 110.613C244.163 111.329 244.488 112.761 243.772 113.282C243.447 113.477 242.731 112.891 242.211 112.957C239.608 113.152 237.786 113.803 235.248 112.371C232.885 111.05 230.997 109.019 229.852 106.565C228.707 104.11 228.364 101.358 228.87 98.6975ZM248.263 112.371C247.742 107.032 245.269 102.344 242.536 97.8511C241.169 95.6374 238.567 93.2283 237.655 90.8844C237.135 89.6473 238.046 88.0847 239.868 88.6056C240.779 88.866 242.536 91.275 243.122 92.1215C244.649 94.2997 246.019 96.5844 247.221 98.958C248.458 101.497 252.232 110.613 248.263 112.371ZM231.994 59.5016C232.254 54.4882 232.319 48.7585 235.573 44.5915C238.111 41.4012 242.666 39.9688 246.375 38.7317C251.386 37.0388 257.438 36.7784 262.644 37.3644C267.264 37.8201 270.778 41.0105 273.577 44.4613C276.505 47.9772 278.718 52.5349 280.735 56.5717C281.255 57.6134 285.485 64.1895 282.622 63.9942C281.516 63.9291 280.475 61.7153 279.629 61.0642C278.978 60.5434 278.132 60.6085 277.546 60.2178C276.895 59.762 277.026 59.3714 276.505 58.8505C272.991 55.1393 269.802 57.2879 266.028 59.2412C265.833 57.939 266.158 55.5299 265.052 54.5533C263.62 53.3162 262.124 55.2695 261.147 56.2461C260.236 57.1577 259.065 58.7203 257.894 59.2412C256.397 59.8923 256.918 59.1761 255.551 58.6552C252.883 57.6134 250.866 60.7387 249.499 62.4966C248.978 63.1477 248.198 64.8406 247.287 65.0359C246.441 65.2312 246.31 64.5801 245.529 64.3848C243.382 63.7337 242.796 65.2312 242.146 67.1194C241.463 69.2235 240.614 71.27 239.608 73.2397C237.59 76.7556 236.744 77.8625 238.306 81.7039C236.029 82.0295 235.508 82.2899 234.402 80.2715C233.312 78.3774 232.814 76.2007 232.97 74.021C233.23 69.0076 231.734 64.6453 231.994 59.5016ZM285.355 83.3968C287.839 88.1429 289.177 93.4057 289.26 98.7626C289.26 101.237 289.129 104.232 287.958 106.446C286.852 108.594 284.574 109.636 282.427 110.547C277.286 112.761 271.559 112.696 266.158 111.719C263.36 111.199 260.627 111.524 258.284 109.831C256.462 108.594 254.315 107.357 253.794 105.013C253.599 104.037 253.924 103.255 253.859 102.279C253.937 101.845 253.914 101.4 253.794 100.976C253.469 100.781 253.143 100.651 252.818 100.455C252.558 99.7393 253.078 98.958 252.948 98.1767C252.818 97.2651 252.037 96.5489 251.712 95.7025C250.735 93.4237 251.451 92.1866 253.273 90.6239C253.729 90.2984 254.119 89.9729 254.575 89.5822C254.965 88.9311 255.421 88.9311 255.876 89.5822C256.722 89.5822 256.722 89.8426 257.633 89.5822C259.651 88.9962 261.278 86.8476 263.23 86.1314C264.011 85.871 265.117 86.0663 265.768 85.5454C266.288 85.0896 265.963 84.0479 266.418 83.5921C267.98 82.0946 270.388 83.527 271.82 81.3133C272.991 79.5553 272.731 77.0161 272.861 74.9977C276.44 75.7139 278.002 79.0996 280.93 80.8575C281.516 78.5787 281.581 78.6438 283.858 78.0578C282.817 80.0111 284.444 81.8342 285.355 83.3968ZM288.088 59.4365C288.739 60.2829 289.26 62.4315 288.088 62.6269V59.4365ZM291.147 67.1194C296.613 67.1194 300.127 74.0861 301.689 78.3183C303.446 83.0061 305.268 89.1915 302.014 93.7492C300.778 95.5072 299.216 95.6374 297.264 95.4421C294.856 95.1816 293.62 94.791 294.531 92.2517C296.288 87.4336 294.986 81.2482 291.863 77.2114C296.158 76.365 293.424 72.3933 291.277 70.9609C288.739 69.2029 286.722 67.0543 291.147 67.1194ZM166.139 317.465C164.837 320.916 163.536 324.302 162.429 327.818C161.388 331.138 161.974 334.915 160.737 338.105C159.956 337.715 159.761 336.998 159.045 336.608C158.655 336.347 157.874 336.217 157.549 335.957C156.582 335.067 155.73 334.061 155.011 332.962C153.579 330.487 154.555 326.516 155.271 324.042C156.188 320.889 157.788 317.977 159.956 315.512C161.453 313.819 162.299 314.34 164.251 315.187C165.488 315.642 166.724 315.968 166.139 317.465ZM156.377 344.421C155.336 346.504 153.449 348.197 152.343 350.346C151.171 352.56 150.26 355.034 148.764 357.052C147.202 359.136 145.835 358.745 143.753 359.656C142.972 359.982 142.647 360.568 142.061 361.024C140.89 361.87 139.653 362.391 138.417 363.172C137.571 361.089 134.968 350.476 131.584 350.736C128.656 350.932 130.152 356.466 130.543 358.094C130.834 359.488 131.225 360.858 131.714 362.196C132.17 363.563 133.731 365.581 133.146 367.014C132.43 368.902 130.673 368.772 129.762 367.404C129.046 366.233 128.656 364.735 128.07 363.433C127.614 362.326 125.402 356.336 123.515 357.312C121.693 358.224 124.556 364.019 125.011 365.126C126.183 367.86 128.395 370.53 125.467 372.743C121.042 376.064 115.576 378.603 110.63 381.012C107.767 382.445 105.164 384.268 102.105 385.44C99.307 386.482 96.0532 386.677 93.3201 387.914C92.6694 388.24 93.1249 388.565 92.1488 388.76C91.3028 388.891 89.8712 388.5 89.0252 388.5C87.572 388.576 86.1154 388.554 84.6652 388.435C83.8192 388.305 81.9971 387.458 82.2574 388.891C81.0861 388.565 80.6306 387.393 79.7846 386.677C78.9767 386.116 78.1284 385.615 77.2467 385.179C75.4897 384.138 74.1882 382.901 73.6676 380.882C72.4312 376.129 75.0342 371.181 78.2228 367.925C80.0449 366.037 82.1924 364.475 83.8843 362.391C84.3977 361.619 84.9862 360.899 85.6413 360.242C86.5524 359.526 87.7888 359.461 88.6998 358.745C89.3506 358.224 89.5458 357.378 90.2616 356.857C91.3028 356.141 92.4741 356.401 93.4503 355.489C93.9709 354.969 95.9231 352.364 95.7929 351.648C96.3135 351.843 96.8341 351.974 97.3547 352.169C97.6801 350.606 100.413 348.653 101.78 347.872C102.431 347.481 103.797 347.481 104.318 347.09C104.968 346.569 104.968 345.397 105.489 344.681C107.051 342.728 110.239 341.816 112.257 340.449C114.855 338.684 117.333 336.748 119.675 334.654C124.438 330.468 128.579 325.622 131.974 320.265C133.379 318.138 134.598 315.894 135.619 313.559C136.204 312.126 136.79 309.522 138.287 308.676C139.848 307.829 143.362 309.001 145.054 309.131C147.592 309.327 151.497 309.197 153.774 310.434C156.182 311.736 154.23 312.843 152.993 314.405C151.265 316.811 149.966 319.499 149.154 322.349C148.438 324.497 148.308 326.581 147.853 328.729C147.397 331.008 147.397 334.068 148.503 336.152C149.545 338.17 157.549 342.077 156.377 344.421ZM61.1082 386.351C55.707 378.929 60.1972 368.121 65.4682 362.131C71.8455 354.903 81.021 350.867 88.5046 345.007C97.1595 338.235 106.075 331.92 113.754 323.976C117.613 319.955 121.078 315.573 124.1 310.889C126.703 306.918 128.591 301.644 133.862 301.058C130.738 304.964 130.543 310.499 128.2 314.861C125.662 319.419 121.888 323.26 118.114 326.776C110.044 334.199 101.324 340.97 92.6043 347.611C88.1792 350.997 83.8192 354.513 79.3942 357.898C75.4246 360.959 71.2598 363.563 68.9822 368.186C65.0127 376.194 64.8175 388.044 73.5374 392.993C68.9822 392.081 63.9064 390.193 61.1082 386.351ZM534.395 52.8604C532.769 49.6701 529.775 48.4981 526.782 47.261C523.853 46.0239 521.12 44.5264 517.867 44.1358C516.435 43.9404 512.27 44.3962 512.075 42.2476C511.945 40.4896 516.24 38.7317 517.216 37.3644C518.712 35.346 519.689 32.1556 519.103 29.6163C518.582 27.2073 516.24 26.4911 514.092 26.0353C507.389 24.668 500.231 25.7098 493.464 26.2306C494.31 25.0587 495.481 24.1471 496.132 22.7147L497.173 24.9285C497.767 23.6504 498.441 22.4109 499.19 21.2172L500.752 22.9752C499.906 19.9801 502.769 19.9801 502.444 17.506C502.314 16.5293 501.663 16.0736 501.468 15.2922C501.142 13.7296 502.379 12.753 501.012 11.3206C499.45 9.69283 496.978 10.3439 495.221 10.4741C495.025 10.4741 494.7 10.9299 494.375 10.995C493.984 11.0601 493.724 10.4741 493.268 10.5393C491.967 10.6044 490.795 11.6461 489.429 11.9717C483.312 13.4041 477.195 16.0085 471.273 18.4175C465.286 20.8917 459.43 23.7565 454.224 27.6631C448.627 31.8301 444.593 37.1039 440.168 42.3778C438.085 44.852 435.873 47.1959 434.311 50.0607C433.465 51.5582 432.749 56.1159 431.252 56.8321C429.625 57.5483 425.591 55.5299 423.964 55.1393C420.126 54.2526 416.187 53.8804 412.25 54.0324C409.062 54.1626 405.743 54.0975 402.619 54.4882C400.797 54.6835 396.242 56.767 395.982 58.9807C395.852 59.9574 397.023 60.8038 397.283 61.7804C397.674 63.2128 397.023 64.7104 397.479 66.1428C398.39 69.0727 402.619 70.1145 405.157 71.026C412.185 73.5653 419.279 75.5836 426.307 77.8625C429.365 78.8391 432.033 80.4669 434.766 82.0295C437.044 83.3317 439.191 84.699 436.849 87.1731C434.636 89.5171 434.896 90.4937 435.547 93.6841C436.263 97.0698 436.458 100.521 437.369 103.906C438.28 107.292 439.972 110.482 439.647 114.063C439.322 117.644 437.825 121.291 436.458 124.546C435.092 127.801 433.53 131.057 432.033 134.312C430.667 137.307 429.105 140.368 425.916 141.605C419.734 144.014 411.86 143.623 405.483 142.777C398.081 141.823 390.811 140.032 383.813 137.438C377.175 134.964 369.887 131.122 364.421 126.564C361.492 124.155 358.304 122.332 355.245 120.184C352.122 117.97 349.714 115.04 346.981 112.371C341.58 107.227 334.942 103.646 328.109 100.846C320.43 97.6558 312.491 97.9813 304.292 97.6558C305.593 95.1165 307.22 92.7075 307.806 89.9078C308.457 86.9778 308.001 83.7875 307.611 80.8575C306.83 75.193 305.333 70.1796 301.754 65.5568C300.127 63.4733 298.175 61.8455 295.442 61.52C293.815 61.3247 290.691 62.6269 289.52 61.1945C288.999 60.5434 289.129 59.2412 288.804 58.525C288.375 57.8527 287.984 57.1572 287.633 56.4415C286.207 53.3744 284.599 50.3957 282.817 47.5215C282.166 46.3495 281.581 44.5915 280.67 43.6149C280.149 43.094 279.498 42.8336 279.238 42.4429C278.718 41.7267 278.457 40.3594 278.002 39.513C277.243 38.0747 276.302 36.7399 275.203 35.5413C273.418 33.5812 271.217 32.0461 268.761 31.0487C267.586 30.5701 266.317 30.3695 265.052 30.4628C264.661 30.4628 264.206 30.7232 263.75 30.7232C262.774 30.6581 262.904 30.2674 262.124 30.1372C256.852 29.0304 249.759 30.593 244.814 32.4812C239.608 34.4996 235.378 37.1039 232.189 41.8569C224.38 53.4464 226.202 68.4867 229.521 81.2482C227.504 80.7273 225.552 80.0762 223.534 79.6856C222.298 79.4251 220.606 79.4902 219.5 78.8391C217.027 77.4067 219.044 73.6955 219.044 71.2864C219.109 65.1661 216.181 55.595 209.934 53.0558C203.361 50.3863 195.422 57.939 191.387 62.1711C188.785 64.9057 186.442 67.9007 183.969 70.7004C182.212 72.7188 179.934 75.8441 176.876 75.3232C170.238 74.2164 172.256 61.52 172.581 57.2879C173.036 50.5165 174.013 43.68 174.078 36.9086C174.078 32.8067 173.362 27.2073 168.286 26.7515C161.323 26.1004 154.75 32.416 150.716 37.2993C140.044 50.1258 137.636 67.1194 140.499 83.2666C140.89 85.6105 142.256 88.5405 139.718 90.038C136.334 91.9912 132.039 93.1632 128.46 94.5305C120.391 97.7209 112.908 101.888 105.294 106.055C97.7452 110.157 90.3918 114.194 83.5589 119.467C76.7366 124.692 70.1981 130.278 63.9715 136.201C60.913 139.196 57.9196 142.256 55.1213 145.511C52.5184 148.571 50.3709 152.022 47.5076 154.822C45.5554 156.775 41.9763 159.314 41.5858 162.31C41.2605 164.719 45.23 166.346 47.0521 167.453C48.2885 168.234 49.1345 168.169 49.2646 169.537C49.3948 171.23 47.6378 173.899 46.987 175.527C45.4041 179.458 43.2317 183.124 40.5447 186.4C34.4276 193.888 27.0742 200.268 20.1112 206.975C13.6038 213.16 7.22648 219.28 2.47604 226.963C1.3047 228.851 -1.62366 232.693 1.17455 234.516C1.89037 234.972 4.1029 235.362 4.81872 234.842C5.72977 234.256 5.27424 233.344 6.31544 232.693C6.05514 234.711 15.3608 230.74 16.0766 230.349C18.0289 229.372 19.7859 228.2 21.8032 227.289C22.9745 226.768 23.1047 226.052 24.0157 225.466C24.4712 225.14 24.5363 225.596 25.1871 225.401C25.7727 225.205 27.1393 225.14 27.5948 224.619C27.5948 224.619 28.0503 223.252 27.6599 223.512C29.2217 222.406 30.1978 224.098 29.2217 225.661C26.4235 230.284 22.8444 233.735 21.7381 239.269C21.3477 241.287 20.6318 245.064 21.8683 246.887C21.9333 246.952 22.3238 246.757 22.3889 246.822C22.6049 247.122 22.8442 247.405 23.1047 247.668C24.2109 248.71 24.1459 249.166 25.968 249.166C27.0266 249.179 28.0807 249.025 29.0915 248.71C29.6772 248.449 29.9375 247.733 30.3279 247.538C30.7835 247.277 30.7184 247.147 31.1088 247.017C31.1739 247.017 31.3691 247.668 31.4993 247.668C32.3453 247.473 32.7357 247.017 33.4515 246.561C35.599 245.389 37.6814 244.022 39.6987 242.85C41.716 241.613 43.2778 239.92 45.2951 238.488C47.4426 236.99 49.1996 235.818 50.8915 233.735C52.0628 232.302 53.4294 231.781 54.1452 231.065C55.0563 230.219 56.6181 226.963 58.1148 226.573C58.7655 226.377 59.3512 226.963 59.6766 226.768C60.067 226.507 59.6115 225.987 59.8718 225.661C60.1508 225.194 60.5284 224.794 60.9781 224.489C61.824 223.838 62.8652 223.643 63.581 222.731C64.3619 221.755 64.4921 220.648 65.4682 219.736C67.8109 217.522 69.8933 215.178 72.3661 213.095C71.39 218.434 70.4789 223.708 71.1948 229.112C71.9106 234.321 74.1231 236.73 78.4831 239.334C79.4269 240.026 80.4284 240.636 81.4765 241.157C82.1273 241.418 83.0383 241.287 83.4939 241.418C85.0556 242.069 84.535 243.306 84.7303 244.803C85.0556 247.017 87.138 248.775 88.4395 250.533C89.5458 252.03 91.5631 255.351 93.4503 255.872C95.1422 256.328 96.704 254.374 98.1356 253.528C100.305 252.334 102.543 251.268 104.838 250.338C109.198 248.319 113.428 245.91 117.723 243.762C119.675 242.785 121.693 242.394 123.775 241.743C126.313 240.962 128.395 239.529 130.803 238.553C135.163 236.795 139.263 234.646 143.558 232.758C152.473 228.917 162.169 226.247 170.108 220.387C173.687 217.783 178.307 217.457 181.822 214.918C185.531 212.249 183.253 208.212 181.691 204.891C177.396 195.971 174.793 186.66 168.872 178.587C165.813 174.355 162.95 169.992 160.282 165.5C157.874 161.528 157.939 157.036 157.353 152.543C156.963 149.548 156.573 146.553 156.117 143.558C155.792 141.67 154.816 139.261 155.987 137.568C157.288 135.745 160.347 134.898 162.299 133.987C164.664 132.685 167.097 131.511 169.587 130.471C175.382 128.21 181.343 126.403 187.418 125.067C189.24 124.611 196.919 121.616 198.35 123.374C196.528 124.546 196.008 126.76 195.227 128.648C194.056 131.448 192.754 134.117 191.908 137.047C190.086 143.102 188.589 149.223 187.093 155.343C185.596 161.463 183.904 167.583 183.448 173.834C183.188 177.024 183.383 180.215 183.383 183.47C183.383 186.921 182.667 190.242 182.798 193.692C182.863 195.971 183.058 198.706 184.424 200.659C185.661 202.482 187.743 202.677 189.565 203.654C191.973 204.956 192.949 205.477 192.949 208.212C192.949 211.467 192.754 214.592 193.079 217.848C194.121 229.047 197.895 242.394 205.444 251.054C205.964 251.64 220.541 270.066 222.168 267.331C223.274 268.633 224.966 269.154 226.333 270.261C228.48 272.084 230.627 273.517 232.384 275.73C235.638 279.832 238.371 284.585 239.217 289.794C239.933 294.286 239.478 299.625 236.94 303.532C234.402 307.439 229.001 309.978 224.901 311.931C219.5 314.47 214.098 314.731 208.242 314.08C205.378 313.754 202.515 313.298 199.652 312.843C198.481 312.647 197.049 312.647 195.943 312.192C194.706 311.736 194.316 311.15 193.144 311.15C192.363 311.192 191.58 311.171 190.802 311.085C189.63 310.824 188.329 310.369 187.158 310.108C185.915 309.767 184.714 309.286 183.579 308.676C182.472 308.09 181.236 308.025 180.13 307.439C178.307 306.527 177.722 304.964 175.184 305.811C172.516 306.722 173.102 309.001 171.41 310.564C169.913 311.931 168.026 310.694 166.594 309.848C164.392 308.648 162.109 307.604 159.761 306.722C157.237 305.711 154.65 304.862 152.017 304.183C149.154 303.402 145.965 303.272 143.232 302.165C140.825 301.188 139.783 299.365 138.026 297.607C137.106 296.734 136.006 296.071 134.803 295.667C133.601 295.262 132.324 295.124 131.063 295.263C126.378 295.589 123.189 300.602 120.716 304.118C114.005 313.77 106.015 322.466 96.9643 329.966C92.5392 333.678 87.5936 336.803 83.2986 340.579C81.4765 342.207 80.175 343.705 78.0927 344.877C75.2945 346.439 72.7566 348.458 70.0885 350.216C59.6115 357.182 51.9327 367.274 54.861 380.492C56.1625 386.416 58.7655 390.649 63.6461 394.23C65.8587 395.857 67.876 397.225 70.6742 397.094C73.3422 397.029 75.6849 396.899 74.1231 393.774C76.0754 394.36 77.7673 395.922 79.9148 396.704C82.6206 397.627 85.4513 398.132 88.3094 398.201C92.5392 398.266 97.55 396.053 101.259 395.076C102.3 394.816 104.318 394.36 105.489 393.383C106.4 392.602 106.205 391.69 107.637 391.3C109.524 390.844 110.239 391.365 111.997 390.258C114.599 388.63 117.398 387.654 120.066 386.156C123.71 384.138 127.159 381.794 130.738 379.71C131.193 381.012 133.992 388.826 135.749 385.114C137.245 381.859 132.365 378.994 135.358 375.673C138.222 372.483 138.807 375.869 141.54 377.301C145.38 379.32 144.794 375.543 143.688 373.264C143.232 372.353 142.321 370.986 142.582 369.944C143.102 367.925 144.729 369.097 146.031 369.293C146.965 369.458 147.926 369.396 148.831 369.113C149.737 368.83 150.562 368.333 151.236 367.665C152.538 366.493 154.62 365.516 155.401 364.019C155.792 363.237 155.857 362.261 156.182 361.414C156.638 360.373 156.898 360.633 157.093 359.331C156.961 358.644 156.895 357.947 156.898 357.247L157.874 357.052C157.874 356.987 157.939 355.685 157.744 355.88C158.069 355.424 158.72 355.229 159.11 354.578C159.436 353.992 159.11 352.885 159.306 352.234C159.566 350.867 160.412 349.76 160.998 348.523C162.364 354.317 161.974 360.308 163.275 366.037C164.316 370.79 166.789 375.022 169.587 378.929C170.889 380.752 172.646 381.989 174.013 383.747C175.184 385.179 175.77 386.482 177.462 387.328C178.633 387.914 179.869 388.174 181.041 388.695C181.822 389.021 183.513 390.453 184.229 390.453C183.644 390.453 185.401 390.518 184.945 390.453C184.945 390.453 184.75 389.672 184.945 389.672C187.548 392.081 190.216 392.146 193.21 393.644C194.576 394.36 195.097 394.295 196.528 394.555C198.416 394.881 199.977 395.988 201.799 396.053C204.598 396.248 207.721 396.574 210.584 396.508C211.365 396.508 212.862 395.988 213.448 396.639C213.838 397.094 213.057 400.415 213.057 401.131C212.537 409.009 213.578 417.343 216.962 424.571C219.695 430.561 222.688 437.658 227.569 442.215C232.97 447.294 240.584 450.875 247.807 452.242C255.811 453.74 263.75 452.633 271.82 452.177C279.802 451.797 287.711 450.464 295.377 448.205C302.61 445.901 309.714 443.206 316.656 440.132C321.406 438.048 327.458 435.118 324.986 428.868C324.4 427.37 322.057 423.138 319.975 425.222C318.153 427.045 321.211 430.496 322.578 431.668C312.101 438.96 299.411 441.369 287.242 443.973C280.54 445.406 273.902 445.341 267.069 445.341C261.278 445.341 255.486 445.536 249.759 444.689C244.553 443.973 238.501 442.606 234.597 438.765C230.419 434.703 226.827 430.079 223.925 425.026C220.866 419.557 220.15 413.697 219.89 407.512C219.684 404.259 219.706 400.996 219.955 397.746C220.215 395.402 221.387 395.141 221.973 393.253C223.339 395.206 224.25 394.49 225.942 393.318C227.048 396.378 226.528 399.503 226.333 402.629C226.236 405.701 226.432 408.775 226.918 411.809C227.569 416.953 230.042 422.357 233.165 426.524C234.597 428.412 236.679 429.193 238.632 430.496C241.104 432.123 243.642 433.686 246.18 435.184C250.996 437.983 256.267 440.392 261.668 440.783C263.555 440.913 264.922 441.89 267.199 441.76C268.566 441.694 269.867 441.239 271.234 441.239C272.6 441.304 273.707 441.694 275.138 441.629C280.865 441.239 286.787 439.35 292.448 438.309C298.565 437.202 304.812 435.965 310.669 433.751C313.207 432.774 315.289 431.537 316.721 429.128C317.762 427.435 317.437 424.31 319.389 423.334C318.153 421.706 318.608 421.445 319.649 420.013C320.17 419.362 321.732 417.604 319.78 417.604C320.365 415 319.389 412.525 318.934 410.051C318.738 408.944 318.803 407.317 318.153 406.405C317.762 405.884 317.112 405.819 316.786 405.428C316.616 405.442 316.446 405.407 316.296 405.326C316.146 405.245 316.022 405.122 315.94 404.973C315.926 404.883 315.93 404.791 315.952 404.703C315.974 404.614 316.014 404.531 316.068 404.459C316.123 404.386 316.192 404.325 316.27 404.279C316.349 404.233 316.436 404.203 316.526 404.191C316.396 403.345 317.046 403.671 316.396 402.303C315.416 400.478 314.037 398.897 312.361 397.68C311.06 396.639 310.083 394.75 308.587 394.23C306.634 393.513 304.552 392.732 302.47 392.016C297.883 390.382 292.959 389.934 288.153 390.714C285.904 391.065 283.685 391.587 281.516 392.276C280.214 392.667 278.262 393.774 277.156 392.602C276.765 392.211 275.984 388.695 275.984 388.37C276.18 386.872 279.238 386.286 280.409 385.7C282.101 384.919 285.29 384.007 286.396 382.445C286.852 381.794 286.331 378.929 286.396 378.864C287.112 378.408 290.106 385.245 290.952 385.765C292.123 386.416 295.507 385.57 296.678 385.44C300.322 385.049 304.097 384.789 307.676 383.942C314.574 382.249 321.341 379.645 327.979 377.366C340.767 373.03 353.016 367.241 364.486 360.112C369.999 356.749 374.96 352.555 379.193 347.676C381.015 345.463 382.316 342.923 384.203 340.775C386.351 338.301 385.7 336.087 386.676 332.962C388.628 326.711 391.036 320.981 392.077 314.47C393.204 307.696 393.618 300.822 393.314 293.961C392.728 280.418 392.077 267.657 386.091 255.221C380.624 243.827 373.596 232.693 365.202 223.317C363.304 221.091 361.165 219.082 358.824 217.327C356.221 215.504 353.423 214.072 351.08 211.858C349.193 210.1 347.566 208.016 345.549 206.324C343.076 204.24 340.148 203.328 337.285 202.026C334.551 200.789 332.014 199.096 329.215 197.924C327.508 197.181 325.746 196.572 323.944 196.101C322.643 195.711 320.886 195.711 319.649 195.06C317.762 193.953 315.745 190.827 314.509 189.004C312.686 186.4 311.71 183.34 310.799 180.345C309.758 176.634 308.782 172.922 307.741 169.276C307.415 168.039 306.049 163.612 308.717 164.653C309.498 164.979 310.214 166.346 310.799 166.932C311.955 168.071 313.271 169.036 314.704 169.797C316.981 171.034 319.324 172.532 321.471 173.378C323.359 174.159 325.311 175.592 327.068 176.634C327.328 176.764 327.393 177.35 327.784 177.48C328.63 177.871 329.15 176.829 329.931 177.089C330.972 177.415 331.168 178.392 331.753 179.238C332.599 180.41 333.055 180.475 334.356 181.061C335.788 181.712 336.829 183.014 338.261 183.665C339.953 184.447 343.727 183.861 343.987 186.53C346.655 184.772 349.974 188.158 351.601 189.916C353.293 187.377 356.221 190.372 358.759 189.525C357.393 191.479 357.588 191.283 359.8 191.479C361.688 191.674 362.794 192.911 364.616 193.627C365.917 194.148 367.284 194.929 368.585 195.32C369.822 195.646 370.798 194.929 371.839 195.125C372.62 195.255 373.271 195.906 373.987 196.101C374.898 196.297 376.199 196.622 377.175 196.818C378.412 197.143 379.648 196.818 380.885 197.078C382.316 197.338 383.553 198.185 385.049 198.51C386.676 198.836 388.368 198.641 389.995 199.031C391.492 199.422 392.403 199.813 393.899 199.813C396.177 199.813 398.78 200.138 400.993 199.878C402.229 199.747 402.88 199.096 404.246 199.747C405.157 200.138 405.678 201.375 406.914 200.789C405.613 200.268 406.784 198.25 408.216 199.813C408.541 198.966 408.802 198.445 409.713 198.185C409.647 199.031 409.517 199.878 410.624 200.073C410.689 199.487 410.819 198.901 410.884 198.25C413.292 200.073 413.812 200.724 416.09 198.51C416.025 199.227 415.699 200.073 416.48 200.594C416.936 199.813 417.391 199.031 417.912 198.25C418.693 200.789 422.532 199.878 424.354 199.487C425.07 199.292 427.022 199.031 427.478 198.445C427.803 198.055 427.738 197.729 427.868 197.469C427.999 197.273 426.762 196.687 427.803 196.362C428.584 196.101 429.17 197.794 430.081 197.729C430.862 197.664 431.252 196.297 431.838 196.036C431.903 196.036 432.293 196.622 432.554 196.492C433.009 196.297 433.204 195.776 433.725 195.58C434.766 195.19 436.068 195.255 437.239 194.799C438.671 194.213 440.167 193.888 441.664 193.432C443.551 192.781 444.397 191.544 445.894 190.567C446.219 190.307 446.61 190.437 447 190.307C447.456 190.111 447.976 189.525 448.562 189.33C450.278 188.673 451.933 187.867 453.508 186.921C455.004 185.944 456.957 185.228 458.323 184.056C459.43 183.079 460.015 181.712 461.121 180.736C462.748 179.303 466.848 177.545 466.197 174.811C468.865 175.201 469.516 173.508 470.492 171.555C471.403 169.732 473.355 169.211 474.592 167.518C475.113 166.802 476.024 165.825 476.284 164.979C476.479 164.523 476.024 164.002 476.154 163.677C476.739 162.179 478.822 161.463 479.863 160.096C481.099 158.338 481.555 156.124 482.596 154.301C482.791 153.975 483.312 153.715 483.507 153.39C483.637 153.129 483.377 152.543 483.507 152.283C483.898 151.697 484.418 151.501 484.809 150.98C485.72 149.743 485.85 147.92 486.696 146.488C486.891 146.162 487.607 145.121 487.672 144.925C487.849 144.287 487.958 143.633 487.997 142.972C488.062 142.712 488.518 141.344 488.583 141.149C488.904 140.674 489.252 140.218 489.624 139.782C490.775 137.845 491.424 135.652 491.511 133.401C491.576 132.554 491.251 131.643 491.576 130.797C491.837 130.08 492.683 129.625 493.008 128.908C493.854 126.955 493.724 124.155 493.919 122.072C494.179 119.793 494.895 117.514 495.09 115.235C495.221 114.128 494.7 113.152 494.7 112.11C494.765 110.938 495.351 110.678 495.611 109.701C495.871 108.594 495.481 107.292 495.741 106.055C495.936 104.948 496.262 103.906 496.392 102.734C496.652 99.7393 496.262 96.614 496.132 93.619C495.979 92.448 496.022 91.2596 496.262 90.1031C496.522 89.1915 497.498 88.1498 497.498 87.1731C497.368 84.113 494.96 86.7825 493.529 86.522C491.902 86.2616 491.576 82.6155 491.121 81.1831C490.08 77.7323 488.973 74.3466 487.932 70.8958C493.008 69.5936 498.214 69.9842 503.355 69.5936C508.394 69.1642 513.382 68.2706 518.257 66.9241C522.422 65.8823 526.912 65.2964 530.686 63.0175C533.615 60.6736 536.218 56.5066 534.395 52.8604Z" fill="#222222"/>
<path fill-rule="evenodd" clip-rule="evenodd" d="M44.4491 119.077C46.4664 118.035 45.9458 116.603 47.4426 115.235C55.707 107.683 65.4682 101.107 75.2294 95.6374C85.5112 89.9077 97.0294 87.4987 107.571 82.4201C109.003 81.769 110.825 80.6622 110.305 78.774C109.719 76.5603 107.571 77.602 106.075 78.1229C101.064 79.8809 95.7279 80.532 90.587 82.0946C79.7195 85.3501 69.5028 91.0146 60.3273 97.6558C54.9135 101.485 49.8602 105.8 45.23 110.547C43.5381 112.305 41.3256 114.389 40.87 116.863C40.2844 119.923 42.1064 120.249 44.4491 119.077Z" fill="#222222"/>
<path fill-rule="evenodd" clip-rule="evenodd" d="M75.8803 316.293C75.8152 313.494 72.8218 314.535 71.26 314.926C64.9477 316.424 59.2863 317.596 53.7549 321.111C43.4081 327.622 35.534 337.519 30.4582 348.457C29.8075 349.89 27.0743 354.513 29.2218 355.88C30.6534 356.791 31.5645 354.122 32.0851 353.145C34.8182 348.132 38.4624 343.77 42.1716 339.407C50.371 329.771 60.1973 323.651 71.9758 319.223C73.3424 318.702 75.8803 318.247 75.8803 316.293Z" fill="#222222"/>
<path fill-rule="evenodd" clip-rule="evenodd" d="M424.615 248.189C422.402 243.827 418.888 238.357 414.008 236.534C411.274 235.558 409.713 237.185 410.493 239.985C411.144 242.199 413.292 243.241 414.853 244.738C418.953 248.514 421.491 254.114 422.988 259.323C424.55 264.857 424.875 270.782 424.875 276.512C424.875 279.507 424.029 282.111 423.639 285.041C423.443 286.213 423.183 288.752 424.485 289.468C427.413 291.031 428.779 282.762 429.04 281.134C430.07 275.431 430.092 269.591 429.105 263.88C428.259 258.476 427.087 253.072 424.615 248.189Z" fill="#222222"/>
<path fill-rule="evenodd" clip-rule="evenodd" d="M416.285 37.0388C417.456 35.4111 416.61 33.1974 416.936 31.3743C417.326 29.421 418.432 27.5328 419.344 25.84C421.377 22.1796 423.615 18.6364 426.046 15.2271C428.519 11.7112 431.578 8.71619 434.181 5.39561C435.092 4.28874 436.653 2.66101 436.263 1.29371C435.612 -0.920016 434.246 0.186846 433.204 1.09838C427.214 6.29668 421.999 12.3262 417.717 19.0035C415.699 22.1288 413.812 25.5144 413.161 29.2257C412.803 31.1484 412.87 33.1262 413.357 35.0204C413.747 36.1273 414.853 38.927 416.285 37.0388Z" fill="#222222"/>
<path fill-rule="evenodd" clip-rule="evenodd" d="M48.4836 307.829C51.477 307.569 54.4705 307.438 57.4639 307.308C59.6764 307.178 62.1493 307.308 64.2317 306.267C66.249 305.16 65.403 303.597 63.7111 303.337C62.7349 303.206 61.1081 303.857 60.0018 303.923C58.8955 303.988 57.7242 303.923 56.5529 303.923C53.2341 303.923 49.655 303.923 46.4663 305.029C45.4251 305.42 43.8633 305.941 43.4078 307.178C42.4968 309.717 47.117 307.959 48.4836 307.829Z" fill="#222222"/>
<path fill-rule="evenodd" clip-rule="evenodd" d="M74.7089 73.5001C79.0689 72.9793 83.2337 71.6771 87.5286 70.8307C91.6283 70.0493 92.279 66.859 87.4635 66.9892C85.8366 66.9892 70.2838 69.9842 74.7089 73.5001Z" fill="#222222"/>
<path fill-rule="evenodd" clip-rule="evenodd" d="M433.53 234.386C430.601 233.67 432.098 236.925 433.009 237.902C434.701 239.725 435.612 241.157 436.068 243.631C436.328 245.064 436.068 248.319 437.304 249.426C438.476 250.533 438.606 249.817 438.801 248.449C439.452 244.673 438.215 235.558 433.53 234.386Z" fill="#222222"/>
<path fill-rule="evenodd" clip-rule="evenodd" d="M401.513 29.4861C402.359 28.6397 401.448 24.7982 401.578 23.6914C401.728 22.4065 402.012 21.1409 402.424 19.915C402.62 19.329 403.596 17.1153 403.075 16.4642C402.359 15.5527 401.123 17.1153 400.732 17.7013C399.496 19.7197 399.171 23.1054 399.366 25.3842C399.431 26.2306 399.886 31.179 401.513 29.4861Z" fill="#222222"/>
<path fill-rule="evenodd" clip-rule="evenodd" d="M229.716 350.932C229.847 348.783 231.929 347.285 231.929 345.007C231.929 342.402 230.172 341.295 228.024 342.988C226.723 344.03 225.682 346.439 223.925 346.765C220.411 347.416 218.979 341.035 215.53 341.816C212.537 342.467 214.099 347.611 215.01 349.369C215.986 351.192 217.743 352.494 217.157 354.773C216.506 357.508 214.164 359.07 215.075 362.13C216.767 367.86 220.411 362.521 222.558 360.698C224.12 359.396 225.031 359.656 226.593 360.893C228.423 362.563 230.511 363.926 232.775 364.93C234.987 365.972 237.135 366.688 237.2 363.237C237.265 360.503 235.183 357.833 233.426 356.01C231.994 354.513 229.586 353.341 229.716 350.932Z" fill="#222222"/>
<path fill-rule="evenodd" clip-rule="evenodd" d="M190.802 342.337C188.199 339.537 184.945 346.634 182.798 347.416C179.414 348.653 178.633 341.881 175.509 342.077C173.102 342.272 173.232 345.723 173.817 347.351C174.403 349.043 176.095 350.476 176.355 352.234C176.811 354.903 171.67 360.307 175.249 362.912C178.307 365.125 179.414 357.638 183.188 360.698C185.075 362.196 190.281 367.795 192.819 364.995C195.878 361.675 188.589 356.075 187.288 353.601C185.596 350.215 194.641 346.439 190.802 342.337Z" fill="#222222"/>
<path fill-rule="evenodd" clip-rule="evenodd" d="M253.729 246.105C253.013 245.78 251.777 246.301 250.996 246.301C250.15 246.236 249.239 245.845 248.393 245.715C246.506 245.389 243.252 245.845 241.95 244.217C240.584 242.524 241.625 239.139 241.039 237.12C240.714 236.013 240.389 234.646 238.892 235.102C237.135 235.688 237.2 238.878 237.005 240.311C236.679 242.394 236.419 243.957 234.337 244.673C232.775 245.194 231.148 244.933 229.912 246.236C229.001 247.147 228.35 248.84 229.066 250.077C230.172 251.9 232.45 250.989 234.076 251.51C236.549 252.421 235.964 256.393 236.484 258.737C236.81 260.234 237.525 264.401 239.673 264.336C242.601 264.271 241.43 258.411 241.3 256.718C241.104 254.96 240.779 253.528 242.666 253.007C244.293 252.551 246.571 253.398 248.263 253.398C250.41 253.398 252.883 252.877 254.184 250.924C254.835 249.686 255.356 246.757 253.729 246.105Z" fill="#222222"/>
<path fill-rule="evenodd" clip-rule="evenodd" d="M360.451 317.921C365.072 318.312 362.273 324.041 365.332 326.255C368.26 328.404 368.651 322.479 368.651 320.786C368.651 316.684 373.661 318.182 376.72 317.53C379.323 316.944 382.186 314.275 379.063 311.931C376.85 310.238 373.076 311.019 370.473 310.629C366.959 310.043 368 307.699 367.935 304.964C367.935 303.988 367.544 300.407 366.308 300.146C363.965 299.625 363.835 306.266 363.64 307.504C362.989 312.843 359.345 309.587 356.417 312.257C352.577 315.707 357.718 317.726 360.451 317.921Z" fill="#222222"/>
<path fill-rule="evenodd" clip-rule="evenodd" d="M140.89 218.629C133.666 224.554 125.467 223.708 118.894 217.327C116.096 214.658 114.404 211.923 114.665 207.951C114.86 204.435 115.901 200.464 118.764 198.12C121.172 196.101 125.662 195.385 128.656 195.125C132.886 194.734 136.66 197.013 139.653 199.943C142.191 202.482 145.185 205.672 145.575 209.384C145.966 213.29 143.753 216.285 140.89 218.629ZM141.996 195.125C135.554 188.874 124.035 189.525 117.398 195.19C109.914 201.571 108.613 213.551 115.836 220.583C123.45 227.94 133.471 227.159 141.475 221.038C143.533 219.533 145.243 217.603 146.489 215.379C147.735 213.154 148.489 210.688 148.699 208.147C149.219 203.003 145.51 198.51 141.996 195.125Z" fill="#222222"/>
<path fill-rule="evenodd" clip-rule="evenodd" d="M267.069 87.8242C266.353 90.1682 266.874 92.7074 267.004 95.1165C264.922 93.8143 263.685 91.5355 261.473 90.4937C260.432 93.4236 265.703 101.758 269.021 99.0231C272.015 96.4838 269.737 89.452 267.069 87.8242Z" fill="#222222"/>
<path fill-rule="evenodd" clip-rule="evenodd" d="M277.872 102.213C276.245 102.799 274.748 102.669 273.121 102.995C272.08 103.19 271.95 102.604 271.755 103.841C271.429 106.446 275.659 107.422 277.546 107.422C279.824 107.357 282.362 105.86 282.167 103.32C281.906 100.586 279.629 101.562 277.872 102.213Z" fill="#222222"/>
<path fill-rule="evenodd" clip-rule="evenodd" d="M279.173 91.275C278.457 90.6239 276.7 88.0847 275.464 88.4753C274.488 88.8009 275.203 89.9728 275.464 90.5588C276.505 92.7074 278.587 94.5305 280.214 96.2885C278.978 96.7442 276.635 97.0047 277.286 98.8928C277.871 100.651 280.474 100.39 281.711 99.609C285.941 97.1349 281.32 93.2283 279.173 91.275Z" fill="#222222"/>
<path fill-rule="evenodd" clip-rule="evenodd" d="M283.468 87.1731C283.728 88.3451 283.924 89.5171 283.273 90.6239L279.694 84.2432C276.83 85.4152 281.841 94.5956 284.77 93.5538C286.787 92.8376 285.811 88.5404 285.485 87.1731C285.29 86.4569 284.9 84.113 283.924 83.9176C281.971 83.4619 283.273 86.3267 283.468 87.1731Z" fill="#222222"/>
<path fill-rule="evenodd" clip-rule="evenodd" d="M137.115 215.569C135.488 214.332 132.755 217.197 130.998 217.197C127.484 217.197 129.371 213.095 127.224 211.728C126.053 211.011 121.302 211.728 122.018 208.863C122.473 207.105 124.23 208.407 125.207 207.3C126.443 205.998 124.686 204.891 123.58 204.37C124.035 203.719 126.833 203.459 127.484 203.915C128.655 204.696 128.59 206.975 129.697 208.147C131.128 206.324 130.347 204.045 131.844 202.417C132.43 201.766 134.122 201.31 133.471 200.203C133.081 199.552 131.389 199.747 130.803 199.227C130.282 198.771 130.347 197.273 129.501 197.208C128.135 197.013 128.2 199.031 127.81 199.617C126.573 201.375 121.302 200.789 123.515 204.37C122.018 203.654 118.048 203.068 118.829 205.607C119.024 206.258 119.805 206.649 120.001 207.43C120.196 208.082 119.805 208.993 119.74 209.644C119.675 210.881 119.61 212.314 120.456 213.29C121.693 214.658 123.384 213.681 124.686 214.267C126.508 215.048 125.857 216.741 126.833 218.239C128.07 220.127 130.022 219.541 131.844 218.955C133.992 218.239 134.317 218.173 135.879 219.997C136.66 219.02 138.612 216.676 137.115 215.569Z" fill="#222222"/>
<path fill-rule="evenodd" clip-rule="evenodd" d="M139.979 208.147C138.287 207.821 138.937 202.743 136.855 204.956C136.074 205.803 136.855 207.43 136.009 208.277C135.423 208.863 134.708 208.537 134.122 208.928C133.601 209.253 133.471 209.97 133.146 210.491C134.11 210.985 135.224 211.101 136.269 210.816C136.269 211.728 135.684 214.332 137.18 214.137C138.612 213.941 138.222 211.337 138.937 210.491C139.653 209.644 142.582 210.035 142.907 208.863C143.167 207.43 140.759 208.277 139.979 208.147Z" fill="#222222"/>
</g>
<defs>
<clipPath id="clip0_7_0">
<rect width="535" height="453" fill="white"/>
</clipPath>
</defs>
</svg>
