<svg width="208" height="98" viewBox="0 0 208 98" fill="none" xmlns="http://www.w3.org/2000/svg">
<g opacity="0.3">
<circle cx="5" cy="5" r="5" fill="#816AFE"/>
<circle cx="5" cy="27" r="5" fill="#816AFE"/>
<circle cx="5" cy="49.0001" r="5" fill="#816AFE"/>
<circle cx="5" cy="70.9999" r="5" fill="#816AFE"/>
<circle cx="5" cy="92.9999" r="5" fill="#816AFE"/>
<circle cx="27" cy="4.99999" r="5" fill="#816AFE"/>
<circle cx="27" cy="27" r="5" fill="#816AFE"/>
<circle cx="27" cy="49.0001" r="5" fill="#816AFE"/>
<circle cx="27" cy="70.9999" r="5" fill="#816AFE"/>
<circle cx="27" cy="92.9999" r="5" fill="#816AFE"/>
<circle cx="49.0001" cy="4.99999" r="5" fill="#816AFE"/>
<circle cx="49.0001" cy="27" r="5" fill="#816AFE"/>
<circle cx="49.0001" cy="49.0001" r="5" fill="#816AFE"/>
<circle cx="49.0001" cy="70.9999" r="5" fill="#816AFE"/>
<circle cx="49.0001" cy="92.9999" r="5" fill="#816AFE"/>
<circle cx="70.9999" cy="4.99999" r="5" fill="#816AFE"/>
<circle cx="70.9999" cy="27" r="5" fill="#816AFE"/>
<circle cx="70.9999" cy="49.0001" r="5" fill="#816AFE"/>
<circle cx="70.9999" cy="70.9999" r="5" fill="#816AFE"/>
<circle cx="70.9999" cy="92.9999" r="5" fill="#816AFE"/>
<circle cx="93" cy="4.99999" r="5" fill="#816AFE"/>
<circle cx="93" cy="27" r="5" fill="#816AFE"/>
<circle cx="93" cy="49.0001" r="5" fill="#816AFE"/>
<circle cx="93" cy="70.9999" r="5" fill="#816AFE"/>
<circle cx="93" cy="92.9999" r="5" fill="#816AFE"/>
<circle cx="115" cy="4.99999" r="5" fill="#816AFE"/>
<circle cx="115" cy="27" r="5" fill="#816AFE"/>
<circle cx="115" cy="49.0001" r="5" fill="#816AFE"/>
<circle cx="115" cy="70.9999" r="5" fill="#816AFE"/>
<circle cx="115" cy="92.9999" r="5" fill="#816AFE"/>
<circle cx="137" cy="4.99999" r="5" fill="#816AFE"/>
<circle cx="137" cy="27" r="5" fill="#816AFE"/>
<circle cx="137" cy="49.0001" r="5" fill="#816AFE"/>
<circle cx="137" cy="70.9999" r="5" fill="#816AFE"/>
<circle cx="137" cy="92.9999" r="5" fill="#816AFE"/>
<circle cx="159" cy="4.99999" r="5" fill="#816AFE"/>
<circle cx="159" cy="27" r="5" fill="#816AFE"/>
<circle cx="159" cy="49.0001" r="5" fill="#816AFE"/>
<circle cx="159" cy="70.9999" r="5" fill="#816AFE"/>
<circle cx="159" cy="92.9999" r="5" fill="#816AFE"/>
<circle cx="181" cy="4.99999" r="5" fill="#816AFE"/>
<circle cx="181" cy="27" r="5" fill="#816AFE"/>
<circle cx="181" cy="49.0001" r="5" fill="#816AFE"/>
<circle cx="181" cy="70.9999" r="5" fill="#816AFE"/>
<circle cx="181" cy="92.9999" r="5" fill="#816AFE"/>
<circle cx="203" cy="4.99999" r="5" fill="#816AFE"/>
<circle cx="203" cy="27" r="5" fill="#816AFE"/>
<circle cx="203" cy="49.0001" r="5" fill="#816AFE"/>
<circle cx="203" cy="70.9999" r="5" fill="#816AFE"/>
<circle cx="203" cy="92.9999" r="5" fill="#816AFE"/>
</g>
</svg>
