<svg width="216" height="109" viewBox="0 0 216 109" fill="none" xmlns="http://www.w3.org/2000/svg">
<circle cx="53" cy="73" r="36" fill="#816AFE"/>
<path fill-rule="evenodd" clip-rule="evenodd" d="M79.7531 92.044C81.6896 92.6648 83.7539 93 85.8966 93C96.9994 93 106 83.9994 106 72.8966C106 61.7938 96.9994 52.7931 85.8966 52.7931C83.7539 52.7931 81.6896 53.1283 79.7531 53.7491C73.7841 45.424 64.0255 40 53.0001 40C42.1369 40 32.5034 45.2656 26.5129 53.3836L10.6 44.1963C5.8889 41.4763 1.50456e-05 44.8763 1.48079e-05 50.3162L1.28338e-05 95.4769C1.2596e-05 100.917 5.88891 104.317 10.6 101.597L26.5129 92.4095C32.5035 100.528 42.1369 105.793 53.0001 105.793C64.0255 105.793 73.7841 100.369 79.7531 92.044ZM79.7531 92.044C71.655 89.4478 65.7931 81.8568 65.7931 72.8966C65.7931 63.9364 71.655 56.3453 79.7531 53.7491C83.6201 59.1426 85.8966 65.7537 85.8966 72.8965C85.8966 80.0394 83.6201 86.6505 79.7531 92.044ZM26.5129 92.4095C22.4846 86.9505 20.1035 80.2016 20.1035 72.8965C20.1035 65.5915 22.4846 58.8426 26.5129 53.3836L49.7103 66.7766C54.4215 69.4966 54.4215 76.2965 49.7103 79.0165L26.5129 92.4095Z" fill="#8EFCBA"/>
<circle cx="95.5" cy="63.5" r="3.5" fill="#FCE96D"/>
<path d="M120.528 46.8867C116.906 46.8867 114.245 45.8863 112.547 43.8855C110.849 41.847 110 38.8458 110 34.8819V25.1422C110 21.1406 110.849 18.1394 112.547 16.1386C114.283 14.1378 116.943 13.1374 120.528 13.1374C124.226 13.1374 126.83 14.1755 128.339 16.2518C129.886 18.3281 130.66 21.4614 130.66 25.6518V30.3518H117.641V36.8072C117.641 38.3928 117.868 39.5442 118.321 40.2614C118.811 40.9787 119.566 41.3373 120.585 41.3373C121.566 41.3373 122.264 40.9976 122.679 40.3181C123.132 39.6008 123.358 38.5249 123.358 37.0904V34.3157H130.603V36.5807C130.603 39.9406 129.754 42.5076 128.056 44.2819C126.358 46.0185 123.849 46.8867 120.528 46.8867ZM123.358 26.5578V23.4434C123.358 21.7446 123.151 20.5365 122.736 19.8193C122.321 19.0643 121.585 18.6867 120.528 18.6867C119.434 18.6867 118.679 19.0831 118.264 19.8759C117.849 20.6687 117.641 22.141 117.641 24.2928V26.5578H123.358Z" fill="white"/>
<path d="M134.242 0.509639H141.601L147.657 32.9566L153.374 0.509639H160.902L151.676 46.3771H143.469L134.242 0.509639Z" fill="white"/>
<path d="M177.591 47C172.836 47 169.44 45.7353 167.402 43.206C165.365 40.639 164.346 36.9016 164.346 31.994V14.7795C164.346 9.90964 165.365 6.22892 167.402 3.73735C169.44 1.24578 172.836 0 177.591 0C182.308 0 185.685 1.24578 187.723 3.73735C189.761 6.22892 190.779 9.90964 190.779 14.7795V31.994C190.779 36.8639 189.742 40.5823 187.666 43.1494C185.629 45.7165 182.27 47 177.591 47ZM177.591 40.8277C179.44 40.8277 180.685 40.2426 181.327 39.0723C181.968 37.902 182.289 36.2032 182.289 33.9759V12.8542C182.289 10.6269 181.968 8.94699 181.327 7.81446C180.723 6.68193 179.478 6.11566 177.591 6.11566C175.704 6.11566 174.44 6.70081 173.799 7.87109C173.157 9.00362 172.836 10.6647 172.836 12.8542V33.9759C172.836 36.2032 173.157 37.902 173.799 39.0723C174.44 40.2426 175.704 40.8277 177.591 40.8277Z" fill="white"/>
<path d="M195.227 40.9976L207.51 6.28554H195.849V0.509639H215.943V4.81325L203.151 40.6578H216V46.3771H195.227V40.9976Z" fill="white"/>
</svg>
