<svg width="629" height="348" viewBox="0 0 629 348" fill="none" xmlns="http://www.w3.org/2000/svg">
<g filter="url(#filter0_d_7_218)">
<path d="M100.253 64.6218C100.253 51.367 110.999 40.6218 124.253 40.6218H504.84C518.095 40.6218 528.84 51.367 528.84 64.6218V164C528.84 177.255 518.095 188 504.84 188H124.253C110.999 188 100.253 177.255 100.253 164V64.6218Z" fill="#816AFE"/>
</g>
<path d="M455.357 78.5716C455.357 78.9967 455.664 79.3546 455.923 79.6915C455.933 79.7045 455.943 79.7177 455.952 79.7312C456.1 79.9392 456.179 80.1879 456.179 80.4428C456.179 80.6977 456.1 80.9463 455.952 81.1544C455.69 81.5255 455.357 81.9086 455.357 82.3632L455.357 85.369C455.357 85.5958 455.173 85.7796 454.946 85.7796C454.719 85.7796 454.536 85.5958 454.536 85.369L454.536 82.3632C454.536 81.9086 454.202 81.5255 453.94 81.1544C453.793 80.9463 453.714 80.6977 453.714 80.4428C453.714 80.1879 453.793 79.9392 453.94 79.7312C453.949 79.7177 453.959 79.7045 453.969 79.6915C454.228 79.3546 454.536 78.9967 454.536 78.5716L454.536 77.9796C454.536 77.7529 454.719 77.5691 454.946 77.5691C455.173 77.5691 455.357 77.7529 455.357 77.9796L455.357 78.5716ZM458.23 80.9855C458.23 81.4401 458.563 81.8232 458.826 82.1943C458.973 82.4024 459.052 82.651 459.052 82.9059C459.052 83.1608 458.973 83.4094 458.826 83.6175C458.817 83.6309 458.807 83.6441 458.797 83.6571C458.538 83.9941 458.23 84.352 458.23 84.777L458.23 85.369C458.23 85.5958 458.047 85.7796 457.82 85.7796C457.593 85.7796 457.409 85.5958 457.409 85.369L457.409 84.777C457.409 84.352 457.102 83.9941 456.843 83.6571C456.833 83.6441 456.823 83.6309 456.813 83.6175C456.666 83.4094 456.587 83.1608 456.587 82.9059C456.587 82.651 456.666 82.4024 456.813 82.1943C457.076 81.8232 457.409 81.4401 457.409 80.9855L457.409 77.9796C457.409 77.7529 457.593 77.5691 457.82 77.5691C458.047 77.5691 458.23 77.7529 458.23 77.9796L458.23 80.9855ZM461.104 78.5716C461.104 78.9967 461.411 79.3546 461.67 79.6915C461.68 79.7045 461.69 79.7177 461.7 79.7312C461.847 79.9392 461.926 80.1879 461.926 80.4428C461.926 80.6977 461.847 80.9463 461.7 81.1544C461.437 81.5255 461.104 81.9086 461.104 82.3632L461.104 85.369C461.104 85.5958 460.92 85.7796 460.693 85.7796C460.467 85.7796 460.283 85.5958 460.283 85.369L460.283 82.3632C460.283 81.9086 459.95 81.5255 459.687 81.1544C459.54 80.9463 459.461 80.6977 459.461 80.4428C459.461 80.1879 459.54 79.9392 459.687 79.7312C459.697 79.7177 459.706 79.7045 459.716 79.6915C459.976 79.3546 460.283 78.9967 460.283 78.5716L460.283 77.9796C460.283 77.7529 460.467 77.5691 460.693 77.5691C460.92 77.5691 461.104 77.7529 461.104 77.9796L461.104 78.5716Z" fill="white"/>
<path d="M433.786 81.6989C433.786 81.7235 433.786 81.7482 433.786 81.7974C433.786 82.4625 433.234 83.0044 432.582 83.0044H429.621V82.0684L426.711 83.694L429.621 85.369V84.433H432.557C432.908 84.433 433.259 84.3591 433.585 84.2359C433.911 84.1128 434.212 83.9157 434.438 83.6694C434.94 83.1768 435.216 82.5117 435.216 81.7974C435.216 81.5019 435.166 81.2309 435.065 80.96L433.786 81.6989Z" fill="white"/>
<path d="M427.665 81.551C427.665 80.886 428.216 80.3441 428.869 80.3441H431.829V81.2801L434.739 79.6544L431.829 77.9795V78.9155H428.869C428.518 78.9155 428.166 78.9894 427.84 79.1125C427.539 79.2603 427.238 79.4574 426.987 79.7037C426.485 80.1963 426.209 80.8614 426.209 81.551C426.209 81.8466 426.26 82.1176 426.36 82.4131L427.69 81.6496C427.665 81.6249 427.665 81.6003 427.665 81.551Z" fill="white"/>
<path d="M203.771 83.944C203.611 83.7328 203.505 83.4953 203.425 83.2314L203.16 82.4661L203.107 82.6508C203.027 82.9411 202.894 82.9675 202.841 82.9939H199.6V84.3134H202.841C203.08 84.3134 203.452 84.2342 203.771 83.944Z" fill="white"/>
<path d="M203.08 80.6978L203.505 81.9118L203.93 83.073C204.249 84.0494 205.019 84.3133 205.444 84.3133H206.932V85.369L208.632 83.6799L206.932 81.9909V82.9938H205.471C205.418 82.9938 205.285 82.941 205.205 82.6507L204.78 81.4367L204.355 80.2755C204.036 79.2991 203.266 79.0352 202.841 79.0352H199.6V80.3547H202.814C202.868 80.3811 203 80.4339 203.08 80.6978Z" fill="white"/>
<path d="M205.125 80.8827L205.205 80.6716C205.285 80.3813 205.418 80.3549 205.471 80.3285H206.932V81.3578L208.632 79.6687L206.932 77.9797V79.009H205.444C205.205 79.009 204.807 79.1145 204.488 79.3784C204.647 79.5896 204.78 79.8535 204.86 80.1174L205.125 80.8827Z" fill="white"/>
<path d="M228.786 84.3097H229.062V82.8564H228.836C228.811 82.955 228.736 83.0289 228.661 83.0781C228.586 83.152 228.51 83.2013 228.435 83.2013V83.4476C228.56 83.3983 228.686 83.3244 228.786 83.2259V84.3097Z" fill="white"/>
<path d="M228.862 85.369C229.639 85.369 230.292 84.8763 230.518 84.1867H233.503C234.205 84.1867 234.858 83.9157 235.359 83.4231C235.861 82.9305 236.137 82.2654 236.137 81.5511C236.137 81.2555 236.087 80.9846 236.012 80.7136L234.707 81.4772C234.707 81.5018 234.707 81.5265 234.707 81.5757C234.707 82.2408 234.18 82.7827 233.528 82.7827H230.442C230.141 82.2161 229.564 81.8467 228.887 81.8467C227.908 81.8467 227.131 82.6349 227.131 83.6201C227.106 84.5808 227.908 85.369 228.862 85.369ZM228.862 82.3886C229.514 82.3886 230.041 82.9305 230.041 83.5709C230.041 84.2359 229.514 84.7532 228.862 84.7532C228.209 84.7532 227.683 84.2113 227.683 83.5709C227.683 82.9305 228.209 82.3886 228.862 82.3886Z" fill="white"/>
<path d="M227.457 82.1422C227.632 81.9452 227.858 81.7974 228.109 81.6988C228.26 81.6496 228.41 81.6003 228.561 81.5757V81.551C228.561 80.886 229.088 80.3441 229.74 80.3441H232.625V81.2801L235.485 79.6298L232.625 77.9795V78.9155H229.715C229.012 78.9155 228.36 79.1864 227.883 79.7037C227.382 80.1963 227.106 80.8614 227.106 81.551C227.106 81.8466 227.156 82.1176 227.231 82.3885C227.306 82.3146 227.382 82.2161 227.457 82.1422Z" fill="white"/>
<circle cx="282.094" cy="82.0635" r="8.0894" stroke="white"/>
<path d="M283.304 77.937L279.199 82.0423L283.304 86.1475" stroke="white" stroke-width="2" stroke-linecap="round" stroke-linejoin="round"/>
<circle cx="379.799" cy="81.6955" r="8.12009" stroke="white"/>
<path d="M378.546 77.5691L382.651 81.6743L378.546 85.7796" stroke="white" stroke-width="2" stroke-linecap="round" stroke-linejoin="round"/>
<circle cx="330.763" cy="81.8796" r="14.4841" stroke="white"/>
<rect x="324.81" y="75.2834" width="4.50467" height="13.1922" rx="2.25233" fill="white"/>
<rect x="332.211" y="75.2834" width="4.50467" height="13.1922" rx="2.25233" fill="white"/>
<rect x="180.579" y="134.426" width="158.052" height="3.35261" rx="1.67631" fill="white"/>
<rect x="338.865" y="134.426" width="143.57" height="3.35261" rx="1.67631" fill="#6759F6"/>
<circle cx="338.631" cy="135.863" r="7.621" fill="white" stroke="#816AFE" stroke-width="2"/>
<circle cx="338.631" cy="135.863" r="5.26839" fill="#816AFE"/>
<path d="M188.218 157.594H181.61V156.572L184.228 153.926C184.732 153.422 185.157 152.974 185.502 152.582C185.848 152.19 186.109 151.807 186.286 151.434C186.464 151.051 186.552 150.636 186.552 150.188C186.552 149.637 186.389 149.222 186.062 148.942C185.736 148.652 185.311 148.508 184.788 148.508C184.303 148.508 183.874 148.592 183.5 148.76C183.136 148.928 182.763 149.161 182.38 149.46L181.722 148.634C182.114 148.307 182.562 148.032 183.066 147.808C183.58 147.574 184.154 147.458 184.788 147.458C185.722 147.458 186.459 147.696 187 148.172C187.542 148.638 187.812 149.287 187.812 150.118C187.812 150.64 187.705 151.13 187.49 151.588C187.276 152.045 186.977 152.498 186.594 152.946C186.212 153.384 185.764 153.856 185.25 154.36L183.164 156.418V156.474H188.218V157.594ZM189.958 150.846C189.958 150.491 190.042 150.244 190.21 150.104C190.378 149.964 190.579 149.894 190.812 149.894C191.055 149.894 191.26 149.964 191.428 150.104C191.605 150.244 191.694 150.491 191.694 150.846C191.694 151.182 191.605 151.424 191.428 151.574C191.26 151.723 191.055 151.798 190.812 151.798C190.579 151.798 190.378 151.723 190.21 151.574C190.042 151.424 189.958 151.182 189.958 150.846ZM189.958 156.838C189.958 156.492 190.042 156.25 190.21 156.11C190.378 155.97 190.579 155.9 190.812 155.9C191.055 155.9 191.26 155.97 191.428 156.11C191.605 156.25 191.694 156.492 191.694 156.838C191.694 157.174 191.605 157.416 191.428 157.566C191.26 157.715 191.055 157.79 190.812 157.79C190.579 157.79 190.378 157.715 190.21 157.566C190.042 157.416 189.958 157.174 189.958 156.838ZM200.018 152.582C200.018 153.655 199.906 154.579 199.682 155.354C199.458 156.119 199.104 156.707 198.618 157.118C198.133 157.528 197.489 157.734 196.686 157.734C195.557 157.734 194.722 157.281 194.18 156.376C193.648 155.461 193.382 154.196 193.382 152.582C193.382 151.499 193.49 150.575 193.704 149.81C193.928 149.044 194.283 148.461 194.768 148.06C195.254 147.649 195.893 147.444 196.686 147.444C197.806 147.444 198.642 147.896 199.192 148.802C199.743 149.698 200.018 150.958 200.018 152.582ZM194.614 152.582C194.614 153.954 194.768 154.98 195.076 155.662C195.394 156.343 195.93 156.684 196.686 156.684C197.433 156.684 197.965 156.348 198.282 155.676C198.609 154.994 198.772 153.963 198.772 152.582C198.772 151.219 198.609 150.197 198.282 149.516C197.965 148.834 197.433 148.494 196.686 148.494C195.93 148.494 195.394 148.834 195.076 149.516C194.768 150.197 194.614 151.219 194.614 152.582ZM205.678 157.594H204.474V150.608C204.474 150.206 204.479 149.884 204.488 149.642C204.497 149.399 204.511 149.147 204.53 148.886C204.381 149.035 204.245 149.161 204.124 149.264C204.003 149.366 203.849 149.497 203.662 149.656L202.598 150.524L201.954 149.698L204.656 147.598H205.678V157.594ZM209.728 150.846C209.728 150.491 209.812 150.244 209.98 150.104C210.148 149.964 210.348 149.894 210.582 149.894C210.824 149.894 211.03 149.964 211.198 150.104C211.375 150.244 211.464 150.491 211.464 150.846C211.464 151.182 211.375 151.424 211.198 151.574C211.03 151.723 210.824 151.798 210.582 151.798C210.348 151.798 210.148 151.723 209.98 151.574C209.812 151.424 209.728 151.182 209.728 150.846ZM209.728 156.838C209.728 156.492 209.812 156.25 209.98 156.11C210.148 155.97 210.348 155.9 210.582 155.9C210.824 155.9 211.03 155.97 211.198 156.11C211.375 156.25 211.464 156.492 211.464 156.838C211.464 157.174 211.375 157.416 211.198 157.566C211.03 157.715 210.824 157.79 210.582 157.79C210.348 157.79 210.148 157.715 209.98 157.566C209.812 157.416 209.728 157.174 209.728 156.838ZM219.788 152.582C219.788 153.655 219.676 154.579 219.452 155.354C219.228 156.119 218.873 156.707 218.388 157.118C217.902 157.528 217.258 157.734 216.456 157.734C215.326 157.734 214.491 157.281 213.95 156.376C213.418 155.461 213.152 154.196 213.152 152.582C213.152 151.499 213.259 150.575 213.474 149.81C213.698 149.044 214.052 148.461 214.538 148.06C215.023 147.649 215.662 147.444 216.456 147.444C217.576 147.444 218.411 147.896 218.962 148.802C219.512 149.698 219.788 150.958 219.788 152.582ZM214.384 152.582C214.384 153.954 214.538 154.98 214.846 155.662C215.163 156.343 215.7 156.684 216.456 156.684C217.202 156.684 217.734 156.348 218.052 155.676C218.378 154.994 218.542 153.963 218.542 152.582C218.542 151.219 218.378 150.197 218.052 149.516C217.734 148.834 217.202 148.494 216.456 148.494C215.7 148.494 215.163 148.834 214.846 149.516C214.538 150.197 214.384 151.219 214.384 152.582ZM227.799 152.582C227.799 153.655 227.687 154.579 227.463 155.354C227.239 156.119 226.885 156.707 226.399 157.118C225.914 157.528 225.27 157.734 224.467 157.734C223.338 157.734 222.503 157.281 221.961 156.376C221.429 155.461 221.163 154.196 221.163 152.582C221.163 151.499 221.271 150.575 221.485 149.81C221.709 149.044 222.064 148.461 222.549 148.06C223.035 147.649 223.674 147.444 224.467 147.444C225.587 147.444 226.423 147.896 226.973 148.802C227.524 149.698 227.799 150.958 227.799 152.582ZM222.395 152.582C222.395 153.954 222.549 154.98 222.857 155.662C223.175 156.343 223.711 156.684 224.467 156.684C225.214 156.684 225.746 156.348 226.063 155.676C226.39 154.994 226.553 153.963 226.553 152.582C226.553 151.219 226.39 150.197 226.063 149.516C225.746 148.834 225.214 148.494 224.467 148.494C223.711 148.494 223.175 148.834 222.857 149.516C222.549 150.197 222.395 151.219 222.395 152.582Z" fill="white"/>
<path d="M443.177 154.732H441.721V157H440.531V154.732H435.743V153.682L440.447 146.948H441.721V153.626H443.177V154.732ZM440.531 150.476C440.531 149.991 440.541 149.58 440.559 149.244C440.578 148.899 440.592 148.572 440.601 148.264H440.545C440.471 148.441 440.377 148.633 440.265 148.838C440.153 149.043 440.046 149.216 439.943 149.356L436.947 153.626H440.531V150.476ZM444.469 150.252C444.469 149.897 444.553 149.65 444.721 149.51C444.889 149.37 445.09 149.3 445.323 149.3C445.566 149.3 445.771 149.37 445.939 149.51C446.116 149.65 446.205 149.897 446.205 150.252C446.205 150.588 446.116 150.831 445.939 150.98C445.771 151.129 445.566 151.204 445.323 151.204C445.09 151.204 444.889 151.129 444.721 150.98C444.553 150.831 444.469 150.588 444.469 150.252ZM444.469 156.244C444.469 155.899 444.553 155.656 444.721 155.516C444.889 155.376 445.09 155.306 445.323 155.306C445.566 155.306 445.771 155.376 445.939 155.516C446.116 155.656 446.205 155.899 446.205 156.244C446.205 156.58 446.116 156.823 445.939 156.972C445.771 157.121 445.566 157.196 445.323 157.196C445.09 157.196 444.889 157.121 444.721 156.972C444.553 156.823 444.469 156.58 444.469 156.244ZM452.177 157H450.973V150.014C450.973 149.613 450.978 149.291 450.987 149.048C450.996 148.805 451.01 148.553 451.029 148.292C450.88 148.441 450.744 148.567 450.623 148.67C450.502 148.773 450.348 148.903 450.161 149.062L449.097 149.93L448.453 149.104L451.155 147.004H452.177V157ZM455.989 152.73C455.989 152.011 456.049 151.307 456.171 150.616C456.301 149.916 456.53 149.286 456.857 148.726C457.193 148.157 457.659 147.704 458.257 147.368C458.854 147.032 459.624 146.864 460.567 146.864C460.763 146.864 460.977 146.873 461.211 146.892C461.453 146.911 461.649 146.943 461.799 146.99V148.04C461.631 147.984 461.439 147.942 461.225 147.914C461.019 147.886 460.809 147.872 460.595 147.872C459.951 147.872 459.414 147.979 458.985 148.194C458.555 148.409 458.215 148.703 457.963 149.076C457.72 149.449 457.543 149.879 457.431 150.364C457.319 150.849 457.249 151.367 457.221 151.918H457.305C457.519 151.591 457.818 151.316 458.201 151.092C458.583 150.859 459.073 150.742 459.671 150.742C460.539 150.742 461.239 151.008 461.771 151.54C462.303 152.063 462.569 152.809 462.569 153.78C462.569 154.825 462.279 155.647 461.701 156.244C461.131 156.841 460.361 157.14 459.391 157.14C458.756 157.14 458.182 156.981 457.669 156.664C457.155 156.347 456.745 155.861 456.437 155.208C456.138 154.555 455.989 153.729 455.989 152.73ZM459.377 156.104C459.965 156.104 460.441 155.917 460.805 155.544C461.169 155.161 461.351 154.573 461.351 153.78C461.351 153.145 461.187 152.641 460.861 152.268C460.543 151.895 460.063 151.708 459.419 151.708C458.98 151.708 458.597 151.801 458.271 151.988C457.944 152.165 457.687 152.394 457.501 152.674C457.323 152.954 457.235 153.243 457.235 153.542C457.235 153.943 457.314 154.345 457.473 154.746C457.631 155.138 457.869 155.465 458.187 155.726C458.504 155.978 458.901 156.104 459.377 156.104ZM464.238 150.252C464.238 149.897 464.322 149.65 464.49 149.51C464.658 149.37 464.859 149.3 465.092 149.3C465.335 149.3 465.54 149.37 465.708 149.51C465.886 149.65 465.974 149.897 465.974 150.252C465.974 150.588 465.886 150.831 465.708 150.98C465.54 151.129 465.335 151.204 465.092 151.204C464.859 151.204 464.658 151.129 464.49 150.98C464.322 150.831 464.238 150.588 464.238 150.252ZM464.238 156.244C464.238 155.899 464.322 155.656 464.49 155.516C464.658 155.376 464.859 155.306 465.092 155.306C465.335 155.306 465.54 155.376 465.708 155.516C465.886 155.656 465.974 155.899 465.974 156.244C465.974 156.58 465.886 156.823 465.708 156.972C465.54 157.121 465.335 157.196 465.092 157.196C464.859 157.196 464.658 157.121 464.49 156.972C464.322 156.823 464.238 156.58 464.238 156.244ZM474.299 151.988C474.299 153.061 474.187 153.985 473.963 154.76C473.739 155.525 473.384 156.113 472.899 156.524C472.413 156.935 471.769 157.14 470.967 157.14C469.837 157.14 469.002 156.687 468.461 155.782C467.929 154.867 467.663 153.603 467.663 151.988C467.663 150.905 467.77 149.981 467.985 149.216C468.209 148.451 468.563 147.867 469.049 147.466C469.534 147.055 470.173 146.85 470.967 146.85C472.087 146.85 472.922 147.303 473.473 148.208C474.023 149.104 474.299 150.364 474.299 151.988ZM468.895 151.988C468.895 153.36 469.049 154.387 469.357 155.068C469.674 155.749 470.211 156.09 470.967 156.09C471.713 156.09 472.245 155.754 472.563 155.082C472.889 154.401 473.053 153.369 473.053 151.988C473.053 150.625 472.889 149.603 472.563 148.922C472.245 148.241 471.713 147.9 470.967 147.9C470.211 147.9 469.674 148.241 469.357 148.922C469.049 149.603 468.895 150.625 468.895 151.988ZM482.31 151.988C482.31 153.061 482.198 153.985 481.974 154.76C481.75 155.525 481.396 156.113 480.91 156.524C480.425 156.935 479.781 157.14 478.978 157.14C477.849 157.14 477.014 156.687 476.472 155.782C475.94 154.867 475.674 153.603 475.674 151.988C475.674 150.905 475.782 149.981 475.996 149.216C476.22 148.451 476.575 147.867 477.06 147.466C477.546 147.055 478.185 146.85 478.978 146.85C480.098 146.85 480.934 147.303 481.484 148.208C482.035 149.104 482.31 150.364 482.31 151.988ZM476.906 151.988C476.906 153.36 477.06 154.387 477.368 155.068C477.686 155.749 478.222 156.09 478.978 156.09C479.725 156.09 480.257 155.754 480.574 155.082C480.901 154.401 481.064 153.369 481.064 151.988C481.064 150.625 480.901 149.603 480.574 148.922C480.257 148.241 479.725 147.9 478.978 147.9C478.222 147.9 477.686 148.241 477.368 148.922C477.06 149.603 476.906 150.625 476.906 151.988Z" fill="white"/>
<defs>
<filter id="filter0_d_7_218" x="0.253418" y="0.621826" width="628.587" height="347.378" filterUnits="userSpaceOnUse" color-interpolation-filters="sRGB">
<feFlood flood-opacity="0" result="BackgroundImageFix"/>
<feColorMatrix in="SourceAlpha" type="matrix" values="0 0 0 0 0 0 0 0 0 0 0 0 0 0 0 0 0 0 127 0" result="hardAlpha"/>
<feOffset dy="60"/>
<feGaussianBlur stdDeviation="50"/>
<feColorMatrix type="matrix" values="0 0 0 0 0.255073 0 0 0 0 0.171354 0 0 0 0 0.391667 0 0 0 0.3 0"/>
<feBlend mode="normal" in2="BackgroundImageFix" result="effect1_dropShadow_7_218"/>
<feBlend mode="normal" in="SourceGraphic" in2="effect1_dropShadow_7_218" result="shape"/>
</filter>
</defs>
</svg>
