<svg width="235" height="65" viewBox="0 0 235 65" fill="none" xmlns="http://www.w3.org/2000/svg">
<path d="M21.2094 2.91625L21.9893 3.26108L21.9368 4.06014C21.9027 4.57985 21.5218 4.81581 20.7942 4.76802L20.775 5.06036L19.7223 4.69761C15.6205 4.96318 13.4339 5.27625 13.1622 5.63683L12.9246 13.7246L12.2114 25.7741L12.3403 27.3875L12.0168 28.7364L11.8235 31.6793C11.7671 32.5368 11.265 33.2281 10.3171 33.753C9.50863 33.3476 9.09035 32.9612 9.06227 32.594L9.11476 31.795C9.90551 30.8813 10.3227 30.0931 10.3662 29.4305L10.4366 28.3586L10.988 23.5406L10.8437 22.161L11.4349 15.5449C11.4691 8.86613 11.2458 5.51094 10.7651 5.47937L9.4203 5.39103L5.07577 5.37968C4.19462 5.08692 3.76472 4.77813 3.78606 4.45331L3.83855 3.65425L4.68881 2.92717L7.89074 3.6464C10.0578 3.63216 11.517 3.36916 12.2683 2.85741L13.8682 3.53014L21.2094 2.91625ZM26.0643 13.335L26.8634 13.3875L27.8831 14.5506L27.8472 15.0963L27.2475 15.5854L25.9401 15.2255C22.8195 18.8307 21.1478 22.329 20.9251 25.7201L20.6421 30.0272L20.6996 33.0257C20.6518 33.7533 20.1862 34.0881 19.3027 34.0301L19.2873 34.2639C18.5906 33.9441 18.2508 33.6543 18.2679 33.3945L18.4625 30.4321C18.3527 21.7735 18.0899 17.4305 17.6741 17.4032C18.1096 16.3357 18.5028 15.8135 18.8536 15.8365L19.1264 15.8544C19.8353 16.1881 20.1572 16.8486 20.0924 17.8361L19.8978 20.7984L20.1706 20.8163C22.2058 17.0484 24.1704 14.5546 26.0643 13.335ZM38.7935 15.6196L39.6315 15.6746L40.6525 16.8182C40.2539 17.5228 40.0137 18.4987 39.9317 19.746L39.8063 21.656L39.0349 28.6321L39.3288 28.9255L39.3108 29.1983L38.8236 31.8478C37.9616 44.9706 36.9135 51.4915 35.6791 51.4104L34.6072 51.34L33.6237 49.9248C34.7437 49.1632 35.3886 47.4897 35.5585 44.9041C36.4146 40.0148 37.1355 33.1136 37.7209 24.2005L37.4676 24.1839C37.2017 24.2578 35.7464 27.1438 33.1016 32.8421C32.2751 33.5055 31.4332 33.9069 30.5758 34.0463C28.9777 33.9414 28.3562 31.1864 28.7112 25.7814C28.9929 21.4937 29.963 18.9411 31.6218 18.1236L32.4419 18.4515L32.3715 19.5234C31.3626 20.5794 30.783 22.2507 30.6328 24.5374L30.5253 26.1745C30.3136 29.3968 30.5716 31.0318 31.2992 31.0796L31.611 31.1C35.3664 25.5791 37.3674 20.9412 37.6141 17.1863L38.7935 15.6196ZM65.9538 12.158C66.6424 12.2032 67.2556 12.6024 67.7933 13.3554C67.7583 13.8881 67.0807 14.4699 65.7605 15.1009C65.2798 15.0693 64.8666 14.605 64.521 13.708C64.9367 12.7436 65.4143 12.2269 65.9538 12.158ZM65.4929 19.1741L66.2593 20.3206C65.4977 20.9882 65.0111 22.9332 64.7995 26.1554C64.6538 29.5646 64.9624 32.9124 65.7252 36.1986L65.6894 36.7443L64.8547 37.5311L64.0557 37.4787C63.1982 37.4223 62.8328 33.1509 62.9596 24.6644C63.2063 20.9095 63.8753 19.0679 64.9667 19.1396L65.4929 19.1741ZM72.0653 5.53261L72.672 5.53332L72.6622 7.47044L72.6443 7.74329C72.3737 11.862 72.5048 13.9389 73.0375 13.9739L75.7262 13.2697C75.8833 13.6584 76.0331 14.0597 76.1756 14.4736C75.832 14.7381 75.7486 14.9153 75.9253 15.0052L72.5851 16.3908L72.2299 30.4407L72.1595 31.5126C71.9342 34.1468 71.6067 36.2522 71.1769 37.829L69.9153 37.6678L70.1125 33.4725L70.5504 26.8072L70.745 23.8448C71.0505 19.1934 70.9369 16.8502 70.4042 16.8152L67.9163 16.8475L67.0623 16.4391L67.1825 15.8011L67.6579 15.7148L68.1841 15.7494C69.9024 15.6143 70.7927 15.0726 70.855 14.1241L70.8198 6.01843L71.1275 5.80376L72.0653 5.53261ZM99.1435 7.19386L100.433 8.12023L100.003 10.4995L100.191 24.0175L100.484 24.0367C102.185 21.9823 103.594 20.9918 104.711 21.0652L105.549 21.1202C107.585 23.1069 108.538 25.0812 108.409 27.0431C106.796 32.9266 104.351 37.2679 101.075 40.0669L100.727 40.2985C100.024 40.0827 99.6953 39.6175 99.7422 38.9029L99.216 38.8683C97.8907 38.7812 97.1945 38.455 97.1272 37.8894L97.1426 37.6556L97.7914 35.5255C98.5971 23.2603 98.5761 14.2421 97.7286 8.47106C97.7602 7.99032 98.2318 7.56459 99.1435 7.19386ZM100.124 37.8514L100.362 38.1019C102.103 37.2246 103.812 34.5574 105.488 30.1004L106.194 27.9937C106.397 24.9014 105.673 23.301 104.023 23.1927C102.321 23.0808 101.022 27.9671 100.124 37.8514ZM119.596 20.9272L120.434 20.9823L121.455 22.1259C121.056 22.8305 120.816 23.8064 120.734 25.0537L120.609 26.9636L119.837 33.9398L120.131 34.2331L120.113 34.506L119.626 37.1555C118.764 50.2783 117.716 56.7991 116.482 56.7181L115.41 56.6476L114.426 55.2325C115.546 54.4709 116.191 52.7973 116.361 50.2118C117.217 45.3225 117.938 38.4213 118.523 29.5082L118.27 29.4916C118.004 29.5654 116.549 32.4515 113.904 38.1498C113.078 38.8132 112.236 39.2146 111.378 39.354C109.78 39.249 109.159 36.494 109.514 31.089C109.795 26.8014 110.765 24.2488 112.424 23.4313L113.244 23.7592L113.174 24.8311C112.165 25.887 111.585 27.5584 111.435 29.8451L111.328 31.4822C111.116 34.7044 111.374 36.3394 112.102 36.3872L112.413 36.4077C116.169 30.8868 118.17 26.2489 118.416 22.4939L119.596 20.9272ZM153.429 23.1497L154.267 23.2047L155.288 24.3483C154.89 25.0529 154.649 26.0288 154.567 27.2761L154.442 29.1861L153.671 36.1622L153.965 36.4555L153.947 36.7284L153.459 39.3779C152.597 52.5007 151.549 59.0215 150.315 58.9405L149.243 58.8701L148.259 57.4549C149.379 56.6933 150.024 55.0198 150.194 52.4342C151.05 47.5449 151.771 40.6437 152.357 31.7306L152.103 31.714C151.838 31.7879 150.382 34.6739 147.737 40.3722C146.911 41.0356 146.069 41.437 145.212 41.5764C143.613 41.4715 142.992 38.7165 143.347 33.3114C143.629 29.0238 144.599 26.4712 146.258 25.6537L147.078 25.9816L147.007 27.0535C145.998 28.1095 145.419 29.7808 145.269 32.0675L145.161 33.7046C144.949 36.9269 145.207 38.5619 145.935 38.6097L146.247 38.6301C150.002 33.1092 152.003 28.4713 152.25 24.7163L153.429 23.1497ZM163.247 22.6789C164.923 22.789 165.934 25.2695 166.281 30.1203L165.987 30.4337L165.882 32.0318C164.883 40.2784 163.176 44.3223 160.759 44.1636L160.451 44.3782L160.179 44.3603C157.529 43.573 156.409 40.0675 156.818 33.844C157.323 26.1522 159.466 22.4305 163.247 22.6789ZM158.542 32.6262C158.532 38.9282 159.125 42.1185 160.321 42.197L160.593 42.2149C162.114 42.3148 163.313 39.1509 164.192 32.7234L164.442 28.923C164.6 26.5063 163.889 25.122 162.307 24.7702C160.108 25.2652 158.853 27.8839 158.542 32.6262ZM177.518 24.732L178.007 25.3317L177.34 27.441L177.285 28.279L177.377 30.4577C176.026 40.0904 174.195 44.8308 171.882 44.6789C169.517 44.5236 168.104 39.8244 167.641 30.5815L167.746 28.9834C167.835 27.6192 168.245 26.8436 168.975 26.6566L169.54 26.6938L170.305 27.2725L169.889 29.1242L169.714 31.7942C169.479 35.3673 170.061 38.9352 171.458 42.498L172.023 42.5351C173.303 42.1103 174.326 38.7587 175.091 32.4802L175.27 29.7517C175.354 28.4784 175.244 27.4729 174.94 26.7353C175.015 25.5919 175.874 24.9241 177.518 24.732ZM187.474 23.9376L188.273 23.99L189.293 25.1531L189.257 25.6988L188.657 26.1879L187.35 25.828C184.229 29.4333 182.558 32.9315 182.335 36.3226L182.052 40.6298L182.11 43.6283C182.062 44.3559 181.596 44.6906 180.713 44.6326L180.697 44.8665C180.001 44.5467 179.661 44.2569 179.678 43.997L179.872 41.0346C179.763 32.376 179.5 28.033 179.084 28.0057C179.52 26.9382 179.913 26.416 180.264 26.439L180.536 26.457C181.245 26.7906 181.567 27.4512 181.502 28.4386L181.308 31.401L181.581 31.4189C183.616 27.651 185.58 25.1572 187.474 23.9376ZM199.453 23.6478L199.724 23.9789L199.69 24.5051C196.114 26.6973 194.24 29.0992 194.069 31.7107L194.032 32.2759C193.906 34.1859 195.263 36.9696 198.102 40.6271L198.265 41.7339C196.742 45.0526 194.116 46.5896 190.387 46.3446C188.425 46.2157 187.491 45.4302 187.586 43.988L190.783 44.4916L191.874 44.5633C194.435 44.1182 195.766 43.1225 195.867 41.5764L195.887 41.2841C195.916 40.8423 194.791 38.7002 192.512 34.8576L191.91 31.8038C192.126 28.5036 194.472 25.7739 198.946 23.6146L199.453 23.6478ZM206.805 24.0525C209.621 25.0857 210.963 26.6157 210.829 28.6426L210.777 29.4416C210.513 33.4564 208.531 36.1187 204.83 37.4284L202.998 37.3081L202.961 37.8733C202.75 41.0955 203.401 43.3957 204.916 44.774L205.754 44.8291C206.767 44.8956 208.297 43.5542 210.344 40.8049L210.562 41.0541L210.855 41.0733C209.296 45.1335 207.36 47.0877 205.048 46.9357C202.943 46.7975 201.47 43.0014 200.628 35.5474C200.342 35.5286 200.197 35.0688 200.19 34.168C200.955 33.6571 201.751 31.3672 202.579 27.2981C204.11 25.0499 205.519 23.968 206.805 24.0525ZM202.915 33.8185C203.012 34.7123 203.263 35.1724 203.665 35.1988L205.303 35.3064C207.526 34.4346 208.74 32.4396 208.945 29.3213L208.963 29.0484C208.807 27.2505 208.04 26.3063 206.663 26.2158C204.506 26.0741 203.257 28.6084 202.915 33.8185ZM216.67 15.7163L217.601 15.5426L217.064 20.4398L216.698 24.8198L216.084 37.4434L215.476 42.8253L215.829 46.0976C215.807 46.4355 215.303 46.9504 214.318 47.6426L213.084 46.4654C213.508 45.5668 213.814 43.6883 214.002 40.8299L214.036 40.3231L216.008 16.5537C216.358 15.9895 216.579 15.7103 216.67 15.7163ZM230 18.0796C232.865 18.3721 234.277 18.8237 234.237 19.4344L234.203 19.9606L233.912 20.2155L233.094 20.4554L233.076 20.7282L232.801 20.4362L229.586 20.2249C226.701 20.0355 224.821 22.5283 223.946 27.7034L223.611 32.8096L223.864 32.8263C225.821 32.6416 227.843 32.1481 229.932 31.3458L230.189 31.5976L230.152 32.1627C229.916 32.9693 227.695 33.8086 223.488 34.6806L223.174 43.331L223.014 45.7671C222.926 47.1184 222.508 47.9065 221.763 48.1316L221.529 48.1162L220.763 46.9698L221.506 44.2979L221.818 35.667L221.559 34.8475L221.033 34.8129C218.824 34.6678 217.51 34.2161 217.09 33.4578C217.525 32.3903 217.918 31.8681 218.269 31.8911L218.834 31.9282L220.941 32.6342L221.175 32.6496C221.578 32.6761 221.841 31.3428 221.966 28.6499C223.139 21.3282 225.817 17.8047 230 18.0796Z" fill="#222222"/>
</svg>
